<svg width="117" height="50" viewBox="0 0 117 50" fill="none" xmlns="http://www.w3.org/2000/svg">
<g clip-path="url(#clip0_129_480)">
<path d="M27.5227 35.2694V43.394H24.834V23.3252H31.955C33.7638 23.3252 35.2955 23.9044 36.5666 25.0628C37.8539 26.2212 38.4894 27.6301 38.4894 29.2895C38.4894 30.9958 37.8539 32.4047 36.5666 33.5474C35.3281 34.6902 33.7801 35.2538 31.955 35.2538H27.5227V35.2694ZM27.5227 25.7985V32.8117H32.0202C33.0957 32.8117 33.9756 32.4673 34.6763 31.7785C35.3933 31.0897 35.7518 30.26 35.7518 29.3051C35.7518 28.3659 35.3933 27.5518 34.6763 26.863C33.9756 26.1586 33.0957 25.7985 32.0202 25.7985H27.5227Z" fill="#404040"/>
<path d="M45.6756 29.2109C47.6636 29.2109 49.228 29.7275 50.3687 30.745C51.5093 31.7626 52.096 33.1558 52.096 34.9404V43.4094H49.5213V41.4996H49.4072C48.2992 43.065 46.8163 43.8477 44.9749 43.8477C43.3943 43.8477 42.0744 43.3937 41.0152 42.5014C39.956 41.6091 39.4182 40.482 39.4182 39.1357C39.4182 37.7112 39.9723 36.5841 41.0967 35.7388C42.221 34.8934 43.7039 34.4708 45.5779 34.4708C47.1748 34.4708 48.4784 34.7525 49.5213 35.3161V34.7212C49.5213 33.8289 49.1465 33.0619 48.4132 32.4357C47.6799 31.8095 46.8 31.4964 45.8223 31.4964C44.3231 31.4964 43.1336 32.1069 42.2699 33.3123L39.9071 31.8878C41.1944 30.1188 43.1173 29.2109 45.6756 29.2109ZM42.2047 39.1984C42.2047 39.8715 42.498 40.4351 43.101 40.8734C43.6876 41.3274 44.3883 41.5465 45.1868 41.5465C46.3111 41.5465 47.3214 41.1395 48.2014 40.3411C49.0813 39.5428 49.5213 38.5879 49.5213 37.5077C48.6902 36.8659 47.517 36.5528 46.0178 36.5528C44.926 36.5528 44.0135 36.8032 43.2965 37.3042C42.5632 37.8208 42.2047 38.447 42.2047 39.1984Z" fill="#404040"/>
<path d="M55.127 29.6651H57.7016V31.9036H57.8157C58.6142 30.1504 60.26 29.2737 62.7532 29.2737L63.3072 29.3363V32.0289L62.1176 31.9193C60.8792 31.9193 59.8526 32.295 59.0378 33.0308C58.2231 33.7665 57.832 34.7058 57.832 35.8485V43.4252H55.1433V29.6651H55.127ZM71.8785 43.6288C70.7052 43.6288 69.7438 43.2844 68.978 42.5956C68.2121 41.9068 67.821 40.9362 67.7884 39.7152V32.0289H65.2789V29.6807H67.7884V25.4697H70.4771V29.6807H73.9806V32.0289H70.4771V38.8698C70.4771 39.7934 70.6564 40.404 71.0312 40.7327C71.406 41.0614 71.8132 41.218 72.2859 41.218C72.4977 41.218 72.7096 41.2023 72.9214 41.1554C73.1332 41.1084 73.3125 41.0458 73.4917 40.9675L74.3391 43.2687C73.6221 43.5035 72.8073 43.6288 71.8785 43.6288Z" fill="#404040"/>
<path d="M76.6855 29.6649H79.2602V31.5748H79.3742C79.7816 30.9016 80.4171 30.3381 81.2645 29.8998C82.1118 29.4458 82.9918 29.2266 83.9043 29.2266C85.6479 29.2266 87.0004 29.7119 87.9455 30.6668C88.8907 31.6217 89.3632 32.9993 89.3632 34.7683V43.4095H86.6745V34.9405C86.6093 32.7019 85.4361 31.5748 83.1384 31.5748C82.063 31.5748 81.1667 31.9974 80.4497 32.8271C79.7327 33.6568 79.3742 34.6587 79.3742 35.8171V43.4095H76.6855V29.6649Z" fill="#404040"/>
<path d="M98.9286 43.8477C96.8266 43.8477 95.0993 43.1589 93.7305 41.7657C92.3617 40.3881 91.6936 38.6348 91.6936 36.5215C91.6936 34.4238 92.3617 32.6862 93.6816 31.2929C95.0015 29.8997 96.6962 29.2109 98.7657 29.2109C100.884 29.2109 102.579 29.8684 103.833 31.1833C105.088 32.4983 105.724 34.3455 105.724 36.725L105.691 37.0068H94.4475C94.48 38.353 94.9526 39.4332 95.8489 40.2629C96.7451 41.0925 97.8206 41.4996 99.059 41.4996C100.77 41.4996 102.106 40.6699 103.084 39.0262L105.479 40.1533C104.844 41.3117 103.947 42.2197 102.807 42.8771C101.65 43.519 100.363 43.8477 98.9286 43.8477ZM94.643 34.8778H102.839C102.758 33.9228 102.351 33.1401 101.634 32.514C100.9 31.8878 99.9227 31.5747 98.7005 31.5747C97.6902 31.5747 96.8103 31.8721 96.0933 32.467C95.36 33.0619 94.8711 33.8759 94.643 34.8778Z" fill="#404040"/>
<path d="M110.84 43.4093H108.152V29.6648H110.726V31.9033H110.84C111.117 31.1676 111.671 30.5571 112.519 30.0405C113.366 29.5239 114.197 29.2734 115.012 29.2734C115.794 29.2734 116.446 29.383 117 29.6022L116.185 32.0912C115.859 31.966 115.322 31.8877 114.605 31.8877C113.594 31.8877 112.714 32.2791 111.965 33.0618C111.215 33.8445 110.84 34.7681 110.84 35.8169V43.4093Z" fill="#404040"/>
<path d="M30.9121 11.5998V13.3531H35.2792C35.1326 14.4645 34.66 15.3255 33.8453 15.936C33.0468 16.5466 32.0691 16.844 30.9121 16.844C29.5596 16.844 28.4352 16.39 27.5064 15.4821C26.5776 14.5898 26.1213 13.4783 26.1213 12.179C26.1213 10.8797 26.5776 9.78391 27.5064 8.87596C28.4352 7.96801 29.5596 7.51403 30.9121 7.51403C32.1669 7.51403 33.2586 7.9367 34.2038 8.76638L35.4911 7.52968C34.2038 6.35561 32.672 5.76074 30.9121 5.76074C29.7226 5.76074 28.5982 6.05818 27.5227 6.63739C26.4635 7.2166 25.6324 7.99931 25.0295 9.00119C24.4266 9.98741 24.1333 11.0362 24.1333 12.179C24.1333 13.3218 24.4266 14.3862 25.0295 15.3725C25.6324 16.3587 26.4635 17.1414 27.5227 17.7206C28.5819 18.2998 29.7063 18.5973 30.9121 18.5973C32.7209 18.5973 34.2038 18.0494 35.3933 16.9692C36.5666 15.8891 37.1532 14.4802 37.1532 12.6956C37.1532 12.2729 37.1206 11.9129 37.0554 11.5998H30.9121Z" fill="#487CBF"/>
<path d="M42.1071 10.332C40.8849 10.332 39.8583 10.7234 39.0273 11.5218C38.1962 12.3045 37.7888 13.2907 37.7888 14.4648C37.7888 15.6232 38.2125 16.6094 39.0436 17.4078C39.8746 18.2062 40.8849 18.5975 42.1071 18.5975C43.3292 18.5975 44.3395 18.2062 45.1706 17.4078C46.0016 16.6094 46.4253 15.6232 46.4253 14.4648C46.4253 13.2907 46.0016 12.3045 45.1706 11.5218C44.3558 10.7234 43.3292 10.332 42.1071 10.332ZM43.8181 16.2494C43.3455 16.7347 42.7752 16.9695 42.1071 16.9695C41.4227 16.9695 40.8523 16.7347 40.3798 16.2494C39.9072 15.7641 39.6791 15.1692 39.6791 14.4648C39.6791 13.729 39.9072 13.1342 40.3798 12.6802C40.8523 12.1949 41.4227 11.9601 42.1071 11.9601C42.7915 11.9601 43.3618 12.1949 43.8344 12.6802C44.3069 13.1342 44.5351 13.729 44.5351 14.4648C44.5351 15.1536 44.3069 15.7485 43.8181 16.2494Z" fill="#EF372C"/>
<path d="M68.0489 6.19922H66.1587V18.3313H68.0489V6.19922Z" fill="#00AC4E"/>
<path d="M51.5257 10.332C50.3036 10.332 49.277 10.7234 48.4459 11.5218C47.6149 12.3045 47.2075 13.2907 47.2075 14.4648C47.2075 15.6232 47.6312 16.6094 48.4622 17.4078C49.2933 18.2062 50.3036 18.5975 51.5257 18.5975C52.7479 18.5975 53.7582 18.2062 54.5892 17.4078C55.4203 16.6094 55.844 15.6232 55.844 14.4648C55.844 13.2907 55.4203 12.3045 54.5892 11.5218C53.7582 10.7234 52.7316 10.332 51.5257 10.332ZM53.2367 16.2494C52.7642 16.7347 52.1938 16.9695 51.5257 16.9695C50.8413 16.9695 50.271 16.7347 49.7984 16.2494C49.3259 15.7641 49.0977 15.1692 49.0977 14.4648C49.0977 13.729 49.3259 13.1342 49.7984 12.6802C50.271 12.1949 50.8413 11.9601 51.5257 11.9601C52.2101 11.9601 52.7805 12.1949 53.253 12.6802C53.7256 13.1342 53.9537 13.729 53.9537 14.4648C53.9537 15.1536 53.7093 15.7485 53.2367 16.2494Z" fill="#FDB614"/>
<path d="M73.2147 16.9695C72.2696 16.9695 71.5689 16.5469 71.1289 15.7172L76.8812 13.4316L76.6856 12.962C76.539 12.5707 76.3434 12.2263 76.099 11.8975C75.8546 11.5688 75.5775 11.3027 75.2679 11.0678C74.9583 10.833 74.5998 10.6608 74.225 10.5356C73.8502 10.4104 73.4429 10.3477 73.0192 10.3477C71.8622 10.3477 70.9008 10.7391 70.1186 11.5218C69.3527 12.3202 68.9617 13.3064 68.9617 14.4805C68.9617 15.6546 69.369 16.6251 70.1838 17.4235C70.9986 18.2219 72.0089 18.6132 73.231 18.6132C74.7465 18.6132 75.936 18.0027 76.816 16.7817L75.3494 15.8424C74.7954 16.5782 74.0947 16.9695 73.2147 16.9695ZM71.4711 12.6176C71.9437 12.1636 72.4814 11.9288 73.0681 11.9288C73.4429 11.9288 73.7688 12.0071 74.0621 12.1636C74.3554 12.3202 74.5509 12.5393 74.665 12.7898L70.8193 14.3239C70.803 13.6351 71.0149 13.0716 71.4711 12.6176Z" fill="#EF372C"/>
<path d="M63.0626 11.2557H62.9974C62.4596 10.6451 61.6938 10.332 60.7324 10.332C59.6243 10.332 58.6629 10.7391 57.8318 11.5531C57.017 12.3671 56.6096 13.3377 56.6096 14.4805C56.6096 15.6076 57.017 16.5781 57.8318 17.3922C58.6629 18.1905 59.6406 18.5975 60.7324 18.5975C61.6938 18.5975 62.4596 18.2845 62.9974 17.6583H63.0626V18.081C63.0626 19.8186 62.2967 20.6796 60.7649 20.6796C60.2761 20.6796 59.8361 20.5387 59.4613 20.2726C59.0865 20.0064 58.7932 19.6464 58.5977 19.2081L56.9519 19.8656C57.1148 20.2256 57.3266 20.5543 57.5711 20.8518C57.8155 21.1492 58.1088 21.3997 58.4347 21.6188C58.7606 21.838 59.1191 21.9945 59.5102 22.1198C59.9013 22.245 60.3087 22.292 60.7486 22.292C62.036 22.292 63.03 21.9163 63.747 21.1805C64.464 20.4291 64.8225 19.3803 64.8225 18.0027V10.5982H63.03V11.2557H63.0626ZM62.5248 16.2651C62.0849 16.7347 61.5308 16.9695 60.8953 16.9695C60.2272 16.9695 59.6569 16.7347 59.1843 16.2494C58.728 15.7641 58.4999 15.1849 58.4999 14.4805C58.4999 13.776 58.728 13.1811 59.2006 12.6959C59.6732 12.2106 60.2435 11.9601 60.8953 11.9601C61.5471 11.9601 62.0849 12.1949 62.5248 12.6802C62.9648 13.1655 63.1929 13.776 63.1929 14.4805C63.1929 15.1692 62.9648 15.7641 62.5248 16.2651Z" fill="#487CBF"/>
<path d="M13.688 0H0V50H13.688V0Z" fill="#487CBF"/>
</g>
<defs>
<clipPath id="clip0_129_480">
<rect width="117" height="50" fill="white"/>
</clipPath>
</defs>
</svg>
