<svg width="90" height="28" viewBox="0 0 90 28" fill="none" xmlns="http://www.w3.org/2000/svg">
<g clip-path="url(#clip0_129_524)">
<path d="M10.0873 11.1162V9.982C8.21057 9.72563 6.30213 10.1078 4.66881 11.067C3.03549 12.0262 1.77217 13.5069 1.08195 15.2708C0.391736 17.0348 0.314723 18.9796 0.863295 20.7926C1.41187 22.6056 2.55415 24.1814 4.10651 25.2669L3.98897 25.1385C2.9312 23.9337 2.23796 22.4529 1.99023 20.8688C1.7425 19.2848 1.95048 17.6631 2.58989 16.1928C3.2293 14.7226 4.27375 13.4646 5.60132 12.5657C6.92888 11.6667 8.48475 11.164 10.0873 11.1162Z" fill="#25F4EE"/>
<path d="M10.2865 23.404C11.2909 23.3967 12.254 23.0039 12.977 22.3067C13.7001 21.6096 14.1276 20.6614 14.1714 19.658L14.1806 1.29571H17.5144L17.5069 1.2545C17.4374 0.87477 17.4028 0.489527 17.4031 0.103516H12.8068V18.5008C12.7841 19.1529 12.5961 19.7884 12.2605 20.348C11.9248 20.9074 11.4526 21.3725 10.888 21.6995C10.3235 22.0265 9.68502 22.2047 9.03272 22.2174C8.38041 22.2302 7.73557 22.0769 7.15869 21.7721C7.51402 22.2719 7.98273 22.6803 8.52641 22.9641C9.07009 23.2476 9.67328 23.3985 10.2865 23.404Z" fill="#25F4EE"/>
<path d="M8.9473 14.4529C8.07713 14.4473 7.23052 14.7353 6.54426 15.2704C5.858 15.8054 5.37218 16.5562 5.16532 17.4014C4.95848 18.2467 5.04266 19.1369 5.40429 19.9285C5.76592 20.7199 6.38386 21.3664 7.15825 21.7633C6.67953 21.1082 6.42025 20.3186 6.4175 19.5074C6.41476 18.696 6.66869 17.9046 7.14296 17.2465C7.61725 16.5882 8.28756 16.0969 9.05802 15.8427C9.82847 15.5884 10.6596 15.5845 11.4324 15.8313V11.145C11.0551 11.092 10.6746 11.0644 10.2936 11.0625C10.2265 11.0625 10.1608 11.0625 10.0937 11.0625H10.0631V14.6025C9.70152 14.4937 9.32484 14.4432 8.9473 14.4529Z" fill="#FE2C55"/>
<path d="M23.785 7.50586H23.7606L23.7499 11.0397C21.4595 11.0376 19.2279 10.3138 17.3721 8.97129V18.3531C17.3646 19.8919 16.9374 21.3993 16.1364 22.7131C15.3355 24.027 14.1913 25.0975 12.8271 25.8092C11.4629 26.5208 9.93035 26.8469 8.39454 26.752C6.85874 26.6573 5.37792 26.1452 4.11157 25.2712C5.26644 26.5149 6.76933 27.3815 8.42417 27.7583C10.079 28.1351 11.8089 28.0044 13.3884 27.3832C14.9678 26.7622 16.3235 25.6795 17.2783 24.2764C18.2331 22.8734 18.7431 21.215 18.7414 19.5178V10.1787C20.6024 11.5159 22.8367 12.2342 25.1283 12.2319V7.64783C24.6767 7.64771 24.2266 7.60013 23.785 7.50586Z" fill="#FE2C55"/>
<path d="M17.4036 18.3479V9.01948C19.2644 10.3571 21.4988 11.0754 23.7905 11.0727V7.5052C22.436 7.21439 21.2125 6.49176 20.304 5.44596C19.5781 4.97385 18.9559 4.35931 18.4747 3.63956C17.9933 2.91983 17.6633 2.10988 17.5044 1.25879H14.146V19.6561C14.1174 20.4593 13.8382 21.2334 13.3476 21.87C12.857 22.5067 12.1795 22.9738 11.41 23.2059C10.6406 23.4382 9.81784 23.424 9.05695 23.1651C8.29605 22.9063 7.63519 22.4159 7.16695 21.7628C6.40238 21.3627 5.79403 20.7177 5.43917 19.9312C5.08432 19.1446 5.00347 18.2616 5.20952 17.4238C5.41558 16.5857 5.89666 15.8411 6.57585 15.3087C7.25503 14.7765 8.09308 14.4873 8.95601 14.4874C9.34249 14.4885 9.72651 14.5488 10.0947 14.666V11.0681C8.46713 11.1053 6.88496 11.6124 5.53895 12.5282C4.19293 13.4441 3.14047 14.7297 2.50838 16.23C1.87629 17.7303 1.69156 19.3816 1.97643 20.9845C2.2613 22.5875 3.00364 24.0737 4.11398 25.2645C5.37914 26.152 6.86368 26.6753 8.40577 26.7771C9.94788 26.879 11.4883 26.5556 12.8592 25.8421C14.2301 25.1286 15.3789 24.0524 16.1802 22.7309C16.9816 21.4094 17.4047 19.8933 17.4036 18.3479Z" fill="black"/>
<path d="M23.7851 7.58338V6.48736C22.5479 6.48715 21.3377 6.12529 20.3032 5.44629C21.1994 6.4721 22.4098 7.27809 23.7851 7.58338Z" fill="#25F4EE"/>
<path d="M20.3053 5.44596C19.2917 4.2866 18.7336 2.79871 18.7345 1.25879H17.4736C17.6387 2.11165 17.9747 2.92228 18.4614 3.64187C18.9481 4.36146 19.5751 4.97514 20.3053 5.44596Z" fill="#FE2C55"/>
<path d="M29 2.00488H38.4825L37.6119 4.71646H35.1505V14.7437H32.0859V4.71646L29.0031 4.72251L29 2.00488Z" fill="black"/>
<path d="M54.0078 2.00488H63.7062L62.8356 4.71646H60.1624V14.7437H57.0937V4.71646L54.0099 4.72251L54.0078 2.00488Z" fill="black"/>
<path d="M39.0576 6.05664H42.097L42.094 14.7432H39.0757L39.0576 6.05664Z" fill="black"/>
<path d="M43.3018 1.96875H46.3372V7.89732L49.3433 4.94867H52.9749L49.1688 8.64182L53.4319 14.7429H50.0818L47.237 10.5121L46.3372 11.3867V14.7429H43.3018V1.96875Z" fill="black"/>
<path d="M75.4707 1.96875H78.5071V7.89732L81.5153 4.94463H85.1388L81.3337 8.63772L85.5958 14.7389H82.2487L79.405 10.5121L78.5051 11.3867V14.7429H75.4707V1.96875Z" fill="black"/>
<path d="M40.5762 5.06348C41.4208 5.06348 42.1055 4.37879 42.1055 3.53418C42.1055 2.68957 41.4208 2.00488 40.5762 2.00488C39.7316 2.00488 39.0469 2.68957 39.0469 3.53418C39.0469 4.37879 39.7316 5.06348 40.5762 5.06348Z" fill="black"/>
<path d="M63.3175 9.54296C63.3175 8.23506 63.8106 6.9752 64.6983 6.01471C65.5861 5.05423 66.8033 4.46369 68.1071 4.3609C67.972 4.35081 67.7884 4.34375 67.6512 4.34375C66.2847 4.36278 64.9806 4.91898 64.021 5.89205C63.0614 6.86512 62.5234 8.17686 62.5234 9.54346C62.5234 10.9101 63.0614 12.2219 64.021 13.1949C64.9806 14.168 66.2847 14.7242 67.6512 14.7432C67.7884 14.7432 67.972 14.7362 68.1071 14.7251C66.8033 14.6223 65.5861 14.0317 64.6983 13.0712C63.8106 12.1108 63.3175 10.8509 63.3175 9.54296Z" fill="#25F4EE"/>
<path d="M69.291 4.34425C69.1528 4.34425 68.9682 4.35131 68.832 4.3614C70.1357 4.46437 71.3527 5.05499 72.2403 6.01546C73.1279 6.97592 73.6209 8.23565 73.6209 9.54345C73.6209 10.8513 73.1279 12.1111 72.2403 13.0715C71.3527 14.032 70.1357 14.6226 68.832 14.7256C68.9682 14.7367 69.1528 14.7437 69.291 14.7437C69.9799 14.7533 70.6639 14.6259 71.3031 14.3689C71.9424 14.1119 72.5242 13.7304 73.0148 13.2467C73.5054 12.7629 73.8949 12.1864 74.1608 11.5508C74.4267 10.9151 74.5636 10.233 74.5636 9.54394C74.5636 8.85494 74.4267 8.17284 74.1608 7.53724C73.8949 6.90158 73.5054 6.32512 73.0148 5.84133C72.5242 5.35754 71.9424 4.97606 71.3031 4.71906C70.6639 4.46205 69.9799 4.33465 69.291 4.34425Z" fill="#FE2C55"/>
<path d="M68.4688 4.34375C67.4403 4.34355 66.4347 4.64839 65.5794 5.21972C64.7241 5.79105 64.0574 6.60321 63.6637 7.55346C63.2699 8.50376 63.1669 9.54936 63.3675 10.5583C63.5681 11.5671 64.0634 12.4938 64.7907 13.2211C65.5181 13.9484 66.4447 14.4437 67.4536 14.6444C68.4624 14.845 69.508 14.7419 70.4583 14.3482C71.4086 13.9545 72.2208 13.2878 72.7921 12.4325C73.3634 11.5771 73.6683 10.5716 73.6681 9.54296C73.6681 8.16406 73.1203 6.84161 72.1452 5.86656C71.1702 4.89152 69.8478 4.34375 68.4688 4.34375ZM68.4688 12.071C67.9689 12.071 67.4801 11.9227 67.0644 11.6449C66.6487 11.3672 66.3246 10.9723 66.1333 10.5104C65.942 10.0485 65.8919 9.54016 65.9894 9.04976C66.087 8.55936 66.3277 8.10896 66.6812 7.75536C67.0347 7.40186 67.4853 7.16106 67.9757 7.06355C68.466 6.96601 68.9743 7.01607 69.4363 7.20736C69.8982 7.39876 70.293 7.72276 70.5708 8.13846C70.8486 8.55426 70.9968 9.04296 70.9968 9.54296C70.9968 10.2135 70.7305 10.8565 70.2564 11.3306C69.7823 11.8046 69.1393 12.071 68.4688 12.071Z" fill="black"/>
<path d="M30.3399 19.2036H29.666L29 24.2591H29.7294L30.2289 20.4583L31.9494 23.7015H32.5996L34.3042 20.4583L34.8037 24.2591H35.5331L34.8671 19.2036H34.1932L32.2666 22.9163L30.3399 19.2036ZM39.852 24.2591V20.8325H39.1383V21.3461C38.9085 20.9719 38.3773 20.7591 37.8384 20.7591C37.3149 20.7591 36.8709 20.9205 36.5062 21.2507C36.1415 21.5808 35.9591 22.0064 35.9591 22.542C35.9591 23.0704 36.1415 23.5033 36.5062 23.8335C36.8709 24.1637 37.3149 24.3325 37.8384 24.3325C38.3773 24.3325 38.8925 24.1124 39.1383 23.7308V24.2591H39.852ZM39.1306 22.5347C39.1306 22.887 39.0118 23.1659 38.7737 23.3713C38.5357 23.5767 38.2426 23.6795 37.9016 23.6795C37.5607 23.6795 37.2753 23.5694 37.0453 23.3566C36.8154 23.1438 36.6965 22.8649 36.6965 22.5347C36.6965 22.2046 36.8075 21.9331 37.0374 21.7276C37.2672 21.5148 37.5607 21.4121 37.9016 21.4121C38.2266 21.4121 38.512 21.5148 38.7578 21.7129C39.0036 21.911 39.1306 22.1899 39.1306 22.5347ZM41.4641 23.0117C41.4641 22.0431 41.805 21.3974 42.4786 21.3974C42.6689 21.3974 42.8514 21.4342 43.0257 21.5149L43.1368 20.8911C43.0021 20.8031 42.7881 20.7591 42.4946 20.7591C41.9871 20.7591 41.6461 21.038 41.4641 21.603V20.8325H40.7426V24.2591H41.4641V23.0117ZM45.9558 24.2591H46.9071L44.9408 22.3146L46.5266 20.8325H45.5434L44.2672 22.0285V18.9688H43.5535V24.2591H44.2672V22.5861L45.9558 24.2591ZM47.4594 22.278C47.5468 21.713 48.0065 21.3608 48.6328 21.3608C49.2354 21.3608 49.6715 21.713 49.7588 22.278H47.4594ZM50.4721 22.5347C50.4721 21.9992 50.2978 21.5735 49.9491 21.2507C49.6082 20.9205 49.164 20.7591 48.6328 20.7591C48.0939 20.7591 47.6419 20.9205 47.2769 21.2507C46.9205 21.5735 46.7379 21.9992 46.7379 22.5347C46.7379 23.0704 46.9205 23.5033 47.2769 23.8335C47.6419 24.1637 48.0939 24.3325 48.6328 24.3325C49.3701 24.3325 50.0283 24.0096 50.3374 23.4226L50.0361 23.32C49.8936 23.2685 49.7903 23.2245 49.7192 23.2026C49.5208 23.5327 49.1084 23.7308 48.6565 23.7308C48.0224 23.7308 47.5468 23.364 47.4594 22.799H50.4644C50.4721 22.7476 50.4721 22.6595 50.4721 22.5347ZM52.0712 19.541H51.3498V20.8325H50.6835V21.3974H51.3498V24.2591H52.0712V21.3974H52.8559V20.8325H52.0712V19.541ZM54.0702 24.2591V20.8325H53.3566V24.2591H54.0702ZM53.3566 19.8785C53.555 20.0473 53.8718 20.0473 54.0621 19.8785C54.2605 19.7098 54.2605 19.4311 54.0621 19.2623C53.8718 19.0935 53.555 19.0935 53.3566 19.2623C53.1663 19.4311 53.1663 19.7098 53.3566 19.8785ZM55.681 22.41C55.681 21.7349 56.1489 21.4121 56.7278 21.4121C57.2349 21.4121 57.5444 21.7571 57.5444 22.3221V24.2591H58.2659V22.278C58.2659 21.3094 57.7584 20.7591 56.8385 20.7591C56.3869 20.7591 55.8954 20.9646 55.681 21.3461V20.8325H54.9596V24.2591H55.681V22.41ZM59.3794 24.8902C59.2051 24.9781 59.1022 25.0296 59.0626 25.0443C59.4113 25.6313 60.0376 25.9688 60.7353 25.9688C62.0831 25.9688 62.7572 25.2276 62.7572 23.7381V20.8325H62.0435V21.3682C61.8136 20.9866 61.2825 20.7591 60.7431 20.7591C60.2201 20.7591 59.7759 20.9279 59.4113 21.2581C59.0467 21.5883 58.8642 22.0211 58.8642 22.5567C58.8642 23.0851 59.0467 23.5107 59.4113 23.8409C59.7759 24.1711 60.2201 24.3325 60.7431 24.3325C61.2825 24.3325 61.8296 24.0904 62.0435 23.7015C62.0435 23.7235 62.0517 23.7602 62.0517 23.7822C62.0517 24.8168 61.6156 25.3377 60.7353 25.3377C60.3152 25.3377 59.8792 25.1249 59.6648 24.7507L59.3794 24.8902ZM62.0357 22.5494C62.0357 22.8944 61.9088 23.1659 61.663 23.3713C61.4172 23.5767 61.1318 23.6795 60.8068 23.6795C60.4659 23.6795 60.1723 23.5767 59.9425 23.3713C59.7126 23.1659 59.6015 22.8944 59.6015 22.5494C59.6015 22.2192 59.7203 21.9478 59.9506 21.735C60.1805 21.5223 60.4659 21.4121 60.8068 21.4121C61.1477 21.4121 61.4409 21.5149 61.6789 21.7204C61.9169 21.9185 62.0357 22.1972 62.0357 22.5494ZM65.525 24.2591H66.2701V22.3661H67.7052C68.2446 22.3661 68.6488 22.212 68.9182 21.9111C69.1959 21.603 69.3306 21.2287 69.3306 20.7885C69.3306 20.3482 69.1959 19.9739 68.9182 19.6658C68.6488 19.3576 68.2446 19.2036 67.7052 19.2036H65.525V24.2591ZM67.6975 19.8419C68.2919 19.8419 68.5932 20.2675 68.5932 20.7885C68.5932 21.3094 68.2842 21.7276 67.6579 21.7276H66.2701V19.8419H67.6975ZM73.3811 24.2591V20.8325H72.6675V21.3461C72.4376 20.9719 71.9064 20.7591 71.3671 20.7591C70.8441 20.7591 70.3998 20.9205 70.0353 21.2507C69.6707 21.5808 69.4881 22.0064 69.4881 22.542C69.4881 23.0704 69.6707 23.5033 70.0353 23.8335C70.3998 24.1637 70.8441 24.3325 71.3671 24.3325C71.9064 24.3325 72.4217 24.1124 72.6675 23.7308V24.2591H73.3811ZM72.6597 22.5347C72.6597 22.887 72.5405 23.1659 72.3029 23.3713C72.0648 23.5767 71.7717 23.6795 71.4308 23.6795C71.0899 23.6795 70.8045 23.5694 70.5742 23.3566C70.3443 23.1438 70.2255 22.8649 70.2255 22.5347C70.2255 22.2046 70.3366 21.9331 70.5664 21.7276C70.7963 21.5148 71.0899 21.4121 71.4308 21.4121C71.7558 21.4121 72.0412 21.5148 72.2869 21.7129C72.5327 21.911 72.6597 22.1899 72.6597 22.5347ZM74.9932 23.0117C74.9932 22.0431 75.3341 21.3974 76.0078 21.3974C76.198 21.3974 76.3805 21.4342 76.5549 21.5149L76.6659 20.8911C76.5312 20.8031 76.3173 20.7591 76.0237 20.7591C75.5162 20.7591 75.1753 21.038 74.9932 21.603V20.8325H74.2713V24.2591H74.9932V23.0117ZM78.0812 19.541H77.3598V20.8325H76.6939V21.3974H77.3598V24.2591H78.0812V21.3974H78.8664V20.8325H78.0812V19.541ZM80.0884 22.41C80.0884 21.7349 80.5559 21.4121 81.1349 21.4121C81.6424 21.4121 81.9514 21.7571 81.9514 22.3221V24.2591H82.6729V22.278C82.6729 21.3094 82.1658 20.7591 81.2459 20.7591C80.7939 20.7591 80.3024 20.9646 80.0884 21.3461V20.8325H79.367V24.2591H80.0884V22.41ZM83.9931 22.278C84.08 21.713 84.5402 21.3608 85.1665 21.3608C85.7691 21.3608 86.2051 21.713 86.2921 22.278H83.9931ZM87.0058 22.5347C87.0058 21.9992 86.8314 21.5735 86.4824 21.2507C86.1414 20.9205 85.6976 20.7591 85.1665 20.7591C84.6271 20.7591 84.1751 20.9205 83.8105 21.2507C83.4537 21.5735 83.2716 21.9992 83.2716 22.5347C83.2716 23.0704 83.4537 23.5033 83.8105 23.8335C84.1751 24.1637 84.6271 24.3325 85.1665 24.3325C85.9038 24.3325 86.562 24.0096 86.8711 23.4226L86.5697 23.32C86.4268 23.2685 86.324 23.2245 86.2525 23.2026C86.0545 23.5327 85.6421 23.7308 85.1901 23.7308C84.5557 23.7308 84.08 23.364 83.9931 22.799H86.998C87.0058 22.7476 87.0058 22.6595 87.0058 22.5347ZM88.3273 23.0117C88.3273 22.0431 88.6682 21.3974 89.3418 21.3974C89.5325 21.3974 89.7146 21.4342 89.8889 21.5149L90 20.8911C89.8653 20.8031 89.6513 20.7591 89.3578 20.7591C88.8503 20.7591 88.5094 21.038 88.3273 21.603V20.8325H87.6058V24.2591H88.3273V23.0117Z" fill="black"/>
</g>
<defs>
<clipPath id="clip0_129_524">
<rect width="90" height="28" fill="white"/>
</clipPath>
</defs>
</svg>
