<svg width="173" height="45" viewBox="0 0 173 45" fill="none" xmlns="http://www.w3.org/2000/svg">
<g clip-path="url(#clip0_1_28)">
<path fill-rule="evenodd" clip-rule="evenodd" d="M69.198 24.046H66.275V11.542H69.198C70.0244 11.5386 70.8428 11.704 71.603 12.028C73.116 12.6711 74.321 13.8754 74.965 15.388C75.287 16.141 75.45 16.95 75.45 17.794C75.45 18.636 75.287 19.446 74.965 20.198C74.6467 20.9462 74.1908 21.628 73.621 22.208C73.0444 22.7949 72.3558 23.26 71.596 23.5758C70.8362 23.8915 70.0207 24.0514 69.198 24.046ZM76.585 10.406C75.6258 9.44951 74.4951 8.68214 73.252 8.144C71.973 7.58836 70.5925 7.30469 69.198 7.311H62.074V28.276H69.198C70.623 28.276 71.991 27.996 73.265 27.444C74.512 26.9101 75.6446 26.1411 76.601 25.179C77.542 24.229 78.298 23.108 78.848 21.848C79.4 20.581 79.681 19.218 79.681 17.794C79.681 16.37 79.401 15.006 78.848 13.74C78.3095 12.4965 77.5418 11.3655 76.585 10.406Z" fill="#143B57"/>
<mask id="mask0_1_28" style="mask-type:luminance" maskUnits="userSpaceOnUse" x="0" y="0" width="173" height="45">
<path d="M0 44.656H172.893V0H0V44.656Z" fill="white"/>
</mask>
<g mask="url(#mask0_1_28)">
<path fill-rule="evenodd" clip-rule="evenodd" d="M83.846 28.276H88.048V7.311H83.846V28.276ZM96.414 11.542H102.695C103.489 11.542 104.155 11.822 104.732 12.398C105.308 12.974 105.588 13.641 105.588 14.435C105.588 15.249 105.308 15.925 104.732 16.501C104.155 17.077 103.489 17.357 102.697 17.357L96.414 17.33V11.542ZM108.554 18.477C109.385 17.2937 109.827 15.881 109.819 14.435C109.819 12.49 109.114 10.798 107.722 9.407C106.332 8.017 104.64 7.311 102.695 7.311H92.213V28.276H96.413V21.588H101.401L105.281 28.276H110.136L105.862 20.832C106.932 20.308 107.835 19.517 108.554 18.477ZM114.312 28.276H128.559V24.046H118.513V19.909H128.559V15.707H118.513V11.542H128.559V7.31H114.312V28.276ZM147.76 22.23C146.502 23.451 145.058 24.046 143.345 24.046C142.504 24.05 141.67 23.884 140.895 23.558C140.15 23.2482 139.475 22.7938 138.907 22.221C138.341 21.6425 137.885 20.9653 137.563 20.223C137.229 19.4567 137.059 18.6289 137.065 17.793C137.065 16.931 137.232 16.113 137.563 15.363C137.887 14.6193 138.347 13.9426 138.92 13.368C139.492 12.7981 140.168 12.3432 140.911 12.028C141.681 11.702 142.509 11.5366 143.345 11.542C145.074 11.542 146.517 12.144 147.755 13.382L148.064 13.692L151.055 10.7L150.747 10.392C149.789 9.43253 148.657 8.66418 147.412 8.128C146.127 7.57991 144.742 7.30182 143.345 7.311C141.901 7.311 140.528 7.591 139.262 8.144C138.019 8.68237 136.888 9.44971 135.929 10.406C134.969 11.369 134.201 12.5054 133.666 13.755C133.113 15.0297 132.83 16.4047 132.834 17.794C132.834 19.239 133.114 20.612 133.666 21.877C134.202 23.1177 134.971 24.2445 135.93 25.197C136.88 26.137 138.002 26.894 139.262 27.443C140.526 27.996 141.9 28.276 143.345 28.276C144.787 28.276 146.155 28.001 147.412 27.459C148.657 26.9229 149.789 26.1545 150.747 25.195L151.057 24.885L148.067 21.931L147.76 22.23ZM155.258 7.311V11.541H161.974V28.276H166.205V11.542H172.893V7.31L155.258 7.311ZM61.934 37.256V33.123H62.822V36.461H64.739V37.256H61.934ZM69.432 36.155C69.69 36.417 70.004 36.547 70.374 36.547C70.744 36.547 71.057 36.417 71.314 36.155C71.572 35.894 71.701 35.573 71.701 35.191C71.701 34.809 71.572 34.487 71.315 34.225C71.1938 34.098 71.0476 33.9975 70.8857 33.9299C70.7237 33.8623 70.5495 33.8289 70.374 33.832C70.004 33.832 69.69 33.962 69.432 34.225C69.3058 34.3516 69.2066 34.5025 69.1402 34.6685C69.0739 34.8345 69.0418 35.0123 69.046 35.191C69.046 35.573 69.176 35.894 69.432 36.155ZM68.779 33.667C69.213 33.247 69.744 33.037 70.374 33.037C71.003 33.037 71.534 33.247 71.967 33.667C72.401 34.088 72.617 34.596 72.617 35.189C72.617 35.783 72.401 36.291 71.967 36.713C71.534 37.134 71.003 37.345 70.374 37.345C69.744 37.345 69.213 37.135 68.779 36.713C68.5706 36.5182 68.4051 36.282 68.2932 36.0196C68.1812 35.7572 68.1253 35.4743 68.129 35.189C68.129 34.596 68.346 34.089 68.779 33.667ZM80.435 35.014V36.547C80.42 36.567 80.395 36.595 80.362 36.632C80.2923 36.7011 80.2181 36.7656 80.14 36.825C80.0259 36.9159 79.9045 36.9972 79.777 37.068C79.6172 37.1497 79.4488 37.2134 79.275 37.258C79.068 37.317 78.855 37.346 78.637 37.346C78.007 37.346 77.475 37.134 77.041 36.713C76.8324 36.5183 76.6669 36.2822 76.5549 36.0197C76.443 35.7573 76.3871 35.4743 76.391 35.189C76.391 34.595 76.607 34.089 77.041 33.667C77.475 33.247 78.006 33.036 78.637 33.036C78.854 33.036 79.06 33.065 79.257 33.121C79.452 33.178 79.613 33.246 79.739 33.327C79.865 33.408 79.976 33.489 80.073 33.569C80.17 33.65 80.24 33.719 80.283 33.774L80.349 33.86L79.786 34.422L79.739 34.358C79.6975 34.3072 79.6524 34.2594 79.604 34.215C79.5339 34.1479 79.4568 34.0886 79.374 34.038C79.2717 33.9783 79.1626 33.9309 79.049 33.897C78.9159 33.854 78.7769 33.8321 78.637 33.832C78.25 33.832 77.927 33.962 77.668 34.221C77.408 34.481 77.278 34.803 77.278 35.189C77.278 35.576 77.408 35.899 77.668 36.158C77.928 36.418 78.25 36.547 78.637 36.547C78.821 36.547 78.989 36.52 79.141 36.465C79.292 36.41 79.399 36.355 79.461 36.299L79.551 36.224V35.662H78.812V35.014H80.435ZM84.592 37.256H85.48V33.122H84.592V37.256ZM92.353 33.121C92.549 33.178 92.709 33.247 92.835 33.327C92.961 33.408 93.073 33.489 93.17 33.569C93.267 33.65 93.337 33.719 93.379 33.774L93.445 33.86L92.883 34.422L92.835 34.358C92.7935 34.3072 92.7484 34.2594 92.7 34.215C92.6299 34.1479 92.5528 34.0886 92.47 34.038C92.3677 33.9779 92.2586 33.9302 92.145 33.896C92.0118 33.8533 91.8728 33.8317 91.733 33.832C91.347 33.832 91.023 33.962 90.765 34.221C90.505 34.481 90.375 34.803 90.375 35.189C90.375 35.576 90.505 35.899 90.765 36.159C91.024 36.417 91.347 36.547 91.733 36.547C91.883 36.547 92.026 36.527 92.163 36.485C92.301 36.444 92.415 36.395 92.505 36.338C92.595 36.281 92.675 36.224 92.745 36.167C92.8008 36.1231 92.8511 36.0728 92.895 36.017L92.94 35.957L93.474 36.518C93.4523 36.5492 93.4289 36.5792 93.404 36.608C93.338 36.6791 93.2676 36.7459 93.193 36.808C93.0848 36.9025 92.9675 36.9863 92.843 37.058C92.6893 37.1427 92.5262 37.2091 92.357 37.256C92.157 37.316 91.948 37.346 91.733 37.346C91.103 37.346 90.571 37.135 90.137 36.713C89.9286 36.5182 89.7631 36.282 89.6512 36.0196C89.5393 35.7572 89.4833 35.4743 89.487 35.189C89.487 34.596 89.704 34.089 90.137 33.667C90.571 33.247 91.103 33.036 91.733 33.036C91.95 33.036 92.157 33.064 92.353 33.121ZM103.352 35.711C103.192 35.6177 103.021 35.5464 102.842 35.499C102.639 35.4418 102.439 35.375 102.243 35.299C102.042 35.2211 101.865 35.0897 101.733 34.919C101.593 34.742 101.523 34.518 101.523 34.247C101.523 33.913 101.657 33.627 101.926 33.391C102.194 33.155 102.542 33.036 102.971 33.036C103.275 33.0351 103.574 33.1028 103.848 33.234C103.949 33.286 104.038 33.34 104.114 33.395C104.19 33.45 104.244 33.497 104.276 33.538L104.328 33.595L103.798 34.158C103.768 34.1229 103.735 34.0895 103.701 34.058C103.622 33.9945 103.534 33.9418 103.441 33.901C103.314 33.8369 103.173 33.8033 103.031 33.803C102.884 33.7958 102.739 33.8419 102.623 33.933C102.575 33.9701 102.536 34.0177 102.51 34.0721C102.483 34.1266 102.469 34.1864 102.469 34.247C102.469 34.385 102.539 34.497 102.678 34.58C102.818 34.664 102.986 34.734 103.186 34.792C103.384 34.849 103.584 34.917 103.785 34.994C103.985 35.07 104.156 35.197 104.297 35.374C104.437 35.55 104.507 35.774 104.507 36.045C104.507 36.428 104.368 36.74 104.09 36.982C103.813 37.225 103.43 37.345 102.942 37.345C102.75 37.345 102.564 37.322 102.384 37.275C102.11 37.2083 101.854 37.0828 101.634 36.907C101.565 36.857 101.501 36.8001 101.443 36.737L101.377 36.665L101.91 36.135C101.937 36.165 101.975 36.205 102.024 36.255C102.073 36.304 102.182 36.369 102.351 36.452C102.52 36.535 102.697 36.576 102.881 36.576C103.095 36.576 103.261 36.526 103.381 36.426C103.501 36.326 103.561 36.199 103.561 36.046C103.561 35.907 103.491 35.796 103.352 35.711ZM109.814 34.895L110.789 33.123H111.734L110.258 35.78V37.256H109.37V35.78L107.895 33.123H108.84L109.814 34.895ZM117.1 35.711C116.94 35.6177 116.769 35.5464 116.59 35.499C116.387 35.4418 116.187 35.3751 115.99 35.299C115.789 35.2208 115.614 35.0894 115.482 34.919C115.342 34.742 115.272 34.518 115.272 34.247C115.272 33.913 115.405 33.627 115.673 33.391C115.942 33.155 116.29 33.036 116.719 33.036C117.023 33.0351 117.322 33.1028 117.596 33.234C117.697 33.286 117.786 33.34 117.862 33.395C117.937 33.45 117.992 33.497 118.024 33.538L118.076 33.595L117.546 34.158C117.516 34.1229 117.483 34.0895 117.449 34.058C117.369 33.9945 117.282 33.9417 117.188 33.901C117.061 33.8369 116.92 33.8033 116.778 33.803C116.631 33.796 116.487 33.8422 116.371 33.933C116.323 33.9701 116.284 34.0177 116.258 34.0721C116.231 34.1266 116.217 34.1864 116.217 34.247C116.217 34.385 116.287 34.497 116.426 34.58C116.565 34.664 116.734 34.734 116.933 34.792C117.133 34.849 117.332 34.917 117.533 34.994C117.733 35.07 117.904 35.197 118.044 35.374C118.184 35.55 118.254 35.774 118.254 36.045C118.254 36.428 118.116 36.74 117.838 36.982C117.561 37.225 117.178 37.345 116.69 37.345C116.497 37.345 116.311 37.322 116.132 37.275C115.858 37.2085 115.602 37.0829 115.381 36.907C115.312 36.857 115.248 36.8 115.191 36.737L115.124 36.665L115.657 36.135L115.772 36.255C115.821 36.304 115.929 36.369 116.099 36.452C116.268 36.535 116.444 36.576 116.629 36.576C116.842 36.576 117.009 36.526 117.129 36.426C117.249 36.326 117.309 36.199 117.309 36.046C117.309 35.907 117.239 35.796 117.1 35.711ZM124.949 33.123V33.921H123.769V37.256H122.885V33.921H121.703V33.123H124.949ZM131.884 36.46V37.256H128.783V33.123H131.824V33.921H129.671V34.749H131.351V35.544H129.671V36.461L131.884 36.46ZM139.535 33.123H140.319V37.256H139.434V34.5L138.106 36.192L136.779 34.512V37.256H135.892V33.123H136.69L138.106 34.924L139.535 33.123ZM146.158 35.711C145.998 35.6177 145.827 35.5464 145.648 35.499C145.445 35.4417 145.245 35.375 145.048 35.299C144.847 35.221 144.671 35.0896 144.539 34.919C144.399 34.742 144.329 34.518 144.329 34.247C144.329 33.913 144.463 33.627 144.731 33.391C144.999 33.155 145.347 33.036 145.776 33.036C146.08 33.0347 146.38 33.1024 146.654 33.234C146.754 33.286 146.843 33.34 146.919 33.395C146.995 33.45 147.049 33.497 147.082 33.538L147.133 33.595L146.603 34.158C146.573 34.123 146.541 34.0897 146.507 34.058C146.427 33.9947 146.339 33.9419 146.246 33.901C146.119 33.837 145.978 33.8034 145.836 33.803C145.689 33.7959 145.545 33.842 145.429 33.933C145.381 33.97 145.342 34.0176 145.315 34.072C145.288 34.1264 145.274 34.1863 145.274 34.247C145.274 34.385 145.344 34.497 145.484 34.58C145.623 34.664 145.792 34.734 145.991 34.792C146.189 34.849 146.389 34.917 146.591 34.994C146.791 35.07 146.961 35.197 147.102 35.374C147.242 35.55 147.312 35.774 147.312 36.045C147.312 36.428 147.173 36.74 146.896 36.982C146.618 37.225 146.236 37.345 145.746 37.345C145.556 37.345 145.369 37.322 145.19 37.275C144.916 37.2086 144.659 37.083 144.439 36.907C144.37 36.8571 144.306 36.8001 144.249 36.737L144.182 36.665L144.715 36.135C144.742 36.165 144.78 36.205 144.829 36.255C144.879 36.304 144.987 36.369 145.156 36.452C145.326 36.535 145.502 36.576 145.686 36.576C145.9 36.576 146.066 36.526 146.187 36.426C146.307 36.326 146.367 36.199 146.367 36.046C146.367 35.907 146.297 35.796 146.157 35.711M155.686 37.256V33.123H156.573V36.461H158.49V37.256H155.686ZM162.353 37.256V33.123H163.241V36.461H165.157V37.256H162.353ZM171.413 33.121C171.61 33.178 171.771 33.247 171.896 33.327C172.022 33.408 172.134 33.489 172.231 33.569C172.328 33.65 172.398 33.719 172.44 33.774L172.506 33.86L171.944 34.422L171.896 34.358C171.854 34.3072 171.809 34.2594 171.761 34.215C171.691 34.1478 171.615 34.0885 171.532 34.038C171.429 33.9779 171.32 33.9303 171.206 33.896C171.073 33.8533 170.934 33.8317 170.794 33.832C170.408 33.832 170.085 33.962 169.825 34.221C169.566 34.481 169.436 34.803 169.436 35.189C169.436 35.576 169.566 35.899 169.826 36.159C170.085 36.417 170.408 36.547 170.794 36.547C170.944 36.547 171.088 36.527 171.225 36.485C171.362 36.444 171.476 36.395 171.566 36.338C171.656 36.281 171.736 36.224 171.806 36.167C171.862 36.1232 171.912 36.0728 171.956 36.017L172.002 35.957L172.535 36.518C172.513 36.5491 172.49 36.5791 172.465 36.608C172.399 36.6789 172.328 36.7457 172.254 36.808C172.146 36.9024 172.029 36.9861 171.905 37.058C171.751 37.1427 171.587 37.2091 171.418 37.256C171.218 37.316 171.009 37.346 170.794 37.346C170.164 37.346 169.632 37.135 169.198 36.713C168.99 36.5182 168.824 36.282 168.712 36.0196C168.6 35.7572 168.544 35.4743 168.548 35.189C168.548 34.596 168.766 34.089 169.198 33.667C169.632 33.247 170.164 33.036 170.794 33.036C171.011 33.036 171.218 33.064 171.414 33.121" fill="#143B57"/>
</g>
<mask id="mask1_1_28" style="mask-type:luminance" maskUnits="userSpaceOnUse" x="0" y="0" width="173" height="45">
<path d="M0 44.656H172.893V0H0V44.656Z" fill="white"/>
</mask>
<g mask="url(#mask1_1_28)">
<path fill-rule="evenodd" clip-rule="evenodd" d="M53.106 22.311C53.106 34.642 43.095 44.631 30.763 44.602L8.575 44.551V7.459H30.841C39.029 7.459 45.667 14.097 45.667 22.285C45.667 30.474 39.029 37.112 30.841 37.112H16.014V14.898H30.841C32.7854 14.9206 34.6425 15.7089 36.0095 17.0919C37.3764 18.4748 38.1431 20.341 38.1431 22.2855C38.1431 24.23 37.3764 26.0962 36.0095 27.4791C34.6425 28.8621 32.7854 29.6504 30.841 29.673H23.453V22.337H27.07V26.057H30.84C31.8403 26.057 32.7996 25.6596 33.5069 24.9524C34.2142 24.2451 34.6115 23.2858 34.6115 22.2855C34.6115 21.2852 34.2142 20.3259 33.5069 19.6186C32.7996 18.9114 31.8403 18.514 30.84 18.514H19.63V33.495H30.84C37.032 33.495 42.051 28.477 42.051 22.285C42.051 16.094 37.031 11.075 30.841 11.075H12.19V40.935H30.84C41.14 40.935 49.489 32.585 49.489 22.285C49.489 11.985 41.139 3.636 30.839 3.636H8.576V0.02H30.816C43.126 0.02 53.106 10 53.106 22.31M3.396 42.148C3.27721 42.3508 3.18639 42.5688 3.126 42.796C3.05322 43.0532 2.96846 43.3068 2.872 43.556C2.77301 43.8111 2.60638 44.0345 2.39 44.202C2.165 44.381 1.88 44.47 1.537 44.47C1.112 44.47 0.750002 44.3 0.450002 43.959C0.150002 43.619 2.31231e-06 43.177 2.31231e-06 42.633C-0.000512342 42.2474 0.0848897 41.8665 0.250002 41.518C0.310252 41.4013 0.37876 41.289 0.455002 41.182C0.525002 41.085 0.585002 41.017 0.637002 40.975L0.710002 40.909L1.423 41.582C1.389 41.612 1.347 41.652 1.297 41.705C1.247 41.757 1.18 41.867 1.097 42.036C1.01582 42.1973 0.973361 42.3754 0.973002 42.556C0.973002 42.77 1.028 42.943 1.138 43.074C1.248 43.204 1.38 43.27 1.538 43.27C1.712 43.27 1.853 43.18 1.96 43.004C2.065 42.827 2.155 42.613 2.228 42.36C2.30354 42.103 2.38928 41.8492 2.485 41.599C2.583 41.344 2.743 41.127 2.968 40.949C3.192 40.771 3.477 40.682 3.82 40.682C4.305 40.682 4.702 40.859 5.01 41.211C5.317 41.563 5.47 42.05 5.47 42.669C5.47 42.913 5.441 43.149 5.381 43.377C5.321 43.606 5.251 43.793 5.167 43.941C5.09155 44.0765 5.00702 44.2068 4.914 44.331C4.85098 44.4186 4.77892 44.4994 4.699 44.572L4.607 44.657L3.933 43.98C3.973 43.945 4.023 43.897 4.085 43.835C4.147 43.773 4.231 43.634 4.335 43.42C4.441 43.205 4.493 42.98 4.493 42.746C4.493 42.476 4.43 42.264 4.303 42.111C4.24557 42.0382 4.17209 41.9797 4.08831 41.94C4.00453 41.9002 3.91271 41.8804 3.82 41.882C3.645 41.882 3.503 41.972 3.396 42.148ZM0.110002 39.23H5.357V38.103H0.109002L0.110002 39.23ZM0.110002 31.628H5.357V32.601L2.023 35.185H5.357V36.312H0.109002V35.335L3.447 32.751H0.110002V31.628ZM0.108002 26.498C0.180002 26.25 0.267002 26.046 0.369002 25.886C0.462857 25.7382 0.565718 25.5962 0.677002 25.461C0.753735 25.3634 0.840921 25.2746 0.937002 25.196L1.047 25.112L1.76 25.825C1.74 25.84 1.713 25.861 1.678 25.885C1.61358 25.9382 1.55309 25.996 1.497 26.058C1.411 26.147 1.337 26.244 1.272 26.349C1.19573 26.479 1.1353 26.6176 1.092 26.762C1.038 26.932 1.01 27.107 1.01 27.286C1.01 27.776 1.174 28.186 1.504 28.515C1.834 28.845 2.243 29.009 2.734 29.009C3.224 29.009 3.634 28.844 3.963 28.515C4.293 28.185 4.457 27.775 4.457 27.285C4.45779 27.0998 4.43152 26.9156 4.379 26.738C4.33617 26.5857 4.27328 26.4397 4.192 26.304C4.12621 26.1982 4.05338 26.097 3.974 26.001C3.91851 25.9303 3.85472 25.8665 3.784 25.811L3.707 25.752L4.42 25.075C4.45 25.095 4.488 25.125 4.536 25.165C4.583 25.205 4.668 25.295 4.788 25.432C4.909 25.57 5.015 25.718 5.107 25.875C5.197 26.032 5.281 26.238 5.357 26.493C5.433 26.748 5.47 27.013 5.47 27.286C5.47 28.086 5.203 28.761 4.668 29.311C4.132 29.861 3.488 30.136 2.734 30.136C1.98 30.136 1.335 29.861 0.800002 29.311C0.267002 28.761 2.31231e-06 28.086 2.31231e-06 27.286C2.31231e-06 27.01 0.0360023 26.747 0.108002 26.498ZM4.347 19.796H5.357V23.733H0.110002V19.873H1.124V22.606H2.174V20.473H3.184V22.607H4.348L4.347 19.796ZM0.110002 14.675H5.357V15.798H1.537V16.698H0.823002C0.805642 16.546 0.766927 16.3972 0.708002 16.256C0.662949 16.1427 0.600535 16.0371 0.523002 15.943C0.463664 15.8751 0.399496 15.8116 0.331002 15.753C0.282535 15.7096 0.229174 15.672 0.172002 15.641L0.109002 15.611V14.675H0.110002ZM2.45 11.876C2.53191 11.7905 2.59588 11.6895 2.63813 11.5789C2.68038 11.4683 2.70006 11.3503 2.696 11.232C2.69993 11.1134 2.6802 10.9952 2.63796 10.8843C2.59573 10.7734 2.53183 10.672 2.45 10.586C2.37111 10.5027 2.27561 10.4368 2.16967 10.3927C2.06373 10.3486 1.94972 10.3273 1.835 10.33C1.7203 10.3274 1.60633 10.3488 1.50041 10.3929C1.39449 10.437 1.29897 10.5028 1.22 10.586C1.13799 10.6719 1.07391 10.7732 1.0315 10.8841C0.989095 10.9951 0.969207 11.1133 0.973002 11.232C0.973002 11.492 1.055 11.707 1.22 11.876C1.385 12.046 1.59 12.131 1.835 12.131C2.08 12.131 2.285 12.046 2.45 11.876ZM3.116 12.67C2.746 13.035 2.319 13.217 1.833 13.217C1.58858 13.2214 1.34602 13.1736 1.12151 13.0769C0.897003 12.9802 0.695692 12.8367 0.531002 12.656C0.177002 12.28 2.31231e-06 11.807 2.31231e-06 11.232C2.31231e-06 10.658 0.177002 10.182 0.530002 9.807C0.694532 9.62566 0.895883 9.48154 1.12059 9.38428C1.3453 9.28701 1.58818 9.23885 1.833 9.243C2.043 9.243 2.254 9.281 2.468 9.357C2.682 9.432 2.841 9.508 2.946 9.584L3.111 9.694L5.357 11.157V12.317L3.633 11.194C3.65912 11.2654 3.67167 11.341 3.67 11.417C3.67 11.888 3.485 12.306 3.116 12.67ZM0.110002 4.83H1.01L5.357 6.891V8.051L1.123 6.027V8.427H0.109002L0.110002 4.83ZM1.961 1.424C1.90763 1.36402 1.84194 1.31626 1.76842 1.28399C1.6949 1.25171 1.61528 1.23569 1.535 1.237C1.45469 1.23549 1.37501 1.25142 1.30146 1.28371C1.22791 1.31599 1.16225 1.36386 1.109 1.424C0.990785 1.55795 0.929128 1.73252 0.937002 1.911C0.937002 2.111 0.994002 2.273 1.109 2.399C1.16194 2.45959 1.22752 2.50782 1.30113 2.54031C1.37473 2.57279 1.45457 2.58873 1.535 2.587C1.705 2.587 1.846 2.525 1.961 2.399C2.07901 2.26453 2.14062 2.08974 2.133 1.911C2.14088 1.73252 2.07922 1.55795 1.961 1.424ZM4.305 1.305C4.153 1.135 3.979 1.05 3.784 1.05C3.588 1.05 3.414 1.135 3.263 1.305C3.11135 1.47036 3.02901 1.68766 3.033 1.912C3.033 2.147 3.11 2.35 3.263 2.519C3.414 2.689 3.588 2.774 3.783 2.774C3.979 2.774 4.153 2.689 4.305 2.519C4.45621 2.35343 4.53817 2.13618 4.534 1.912C4.53827 1.6878 4.4563 1.47051 4.305 1.305ZM4.971 3.281C4.638 3.643 4.242 3.824 3.784 3.824C3.622 3.824 3.469 3.797 3.322 3.742C3.19195 3.69572 3.06984 3.6296 2.96 3.546C2.87139 3.47601 2.78815 3.39946 2.711 3.317C2.6526 3.25569 2.60004 3.18907 2.554 3.118L2.51 3.037L2.468 3.1C2.45 3.127 2.408 3.175 2.343 3.246C2.2806 3.31504 2.21086 3.37708 2.135 3.431C2.0445 3.49075 1.94626 3.53786 1.843 3.571C1.722 3.613 1.594 3.634 1.46 3.634C1.07 3.634 0.729002 3.469 0.437002 3.14C0.146002 2.81 2.31231e-06 2.401 2.31231e-06 1.912C2.31231e-06 1.423 0.146002 1.013 0.437002 0.682C0.730002 0.352 1.07 0.187 1.46 0.187C1.67 0.187 1.862 0.237 2.037 0.337C2.211 0.437 2.333 0.537 2.404 0.637L2.51 0.787C2.52 0.767 2.536 0.74 2.558 0.704C2.579 0.669 2.63 0.606 2.708 0.514C2.786 0.423 2.871 0.343 2.964 0.274C3.056 0.206 3.176 0.144 3.322 0.086C3.469 0.029 3.622 0 3.784 0C4.242 0 4.638 0.181 4.971 0.544C5.304 0.906 5.471 1.362 5.471 1.912C5.471 2.462 5.304 2.918 4.971 3.281Z" fill="#ED3124"/>
</g>
</g>
<defs>
<clipPath id="clip0_1_28">
<rect width="173" height="45" fill="white"/>
</clipPath>
</defs>
</svg>
