<svg width="69" height="42" viewBox="0 0 69 42" fill="none" xmlns="http://www.w3.org/2000/svg">
<g clip-path="url(#clip0_1897_13345)">
<path d="M67.5 0.639999H0.780029V31.84H67.5V0.639999Z" fill="white"/>
<path d="M68.1 32.62H0V0H68.1V32.61V32.62ZM1.55 31.05H66.54V1.55H1.55V31.05Z" fill="#E86224"/>
<path d="M30.24 3.78L23.67 17.62V3.78H15.71L3.67999 28.51H10.45L17.18 15V28.51H24.99L32.1 14.22V28.51H38.6V3.78H30.24Z" fill="#209AD6"/>
<path d="M57.5 19.6C57.09 20.47 55.47 23.51 51.48 23.51C47.49 23.51 44.75 19.88 44.75 16.11C44.75 12.58 47.15 8.85 51.45 8.85C54.9 8.85 56.79 11.05 57.5 12.9C57.5 12.9 63.4 10.73 63.41 10.75C61.76 7.19 57.81 3.27 51.47 3.27C43.29 3.27 38.35 9.79 38.35 16.16C38.35 22.88 43.69 29.1 51.54 29.1C56.96 29.1 61.66 25.97 63.63 21.09C63.63 21.14 57.51 19.6 57.51 19.6" fill="#209AD6"/>
<path d="M1.13 40.28H1.76C2 40.28 2.54 40.28 2.54 39.52C2.54 39.04 2.36 38.75 1.79 38.75H1.13V40.28ZM1.13 37.92H1.88C2.13 37.92 2.47 37.75 2.47 37.23C2.47 36.83 2.2 36.54 1.82 36.54H1.13V37.92ZM0 41.11V35.72H2C2.86 35.72 3.57 35.97 3.57 37.12C3.57 37.74 3.26 38.19 2.65 38.31V38.33C3.45 38.44 3.66 38.96 3.66 39.7C3.66 41.07 2.47 41.13 1.99 41.13L0 41.11Z" fill="#959799"/>
<path d="M4.54999 41.11V35.72H7.49999V36.55H5.67999V37.88H7.34999V38.71H5.67999V40.29H7.55999V41.12L4.54999 41.11Z" fill="#959799"/>
<path d="M11.43 41.2C10.03 41.2 9.77 40.38 9.83 39.44H10.96C10.96 39.96 10.98 40.39 11.6 40.39C11.98 40.39 12.17 40.14 12.17 39.78C12.17 38.81 9.9 38.75 9.9 37.14C9.9 36.29 10.3 35.62 11.68 35.62C12.78 35.62 13.33 36.11 13.25 37.24H12.15C12.15 36.84 12.08 36.42 11.63 36.42C11.26 36.42 11.05 36.62 11.05 37C11.05 38.02 13.32 37.93 13.32 39.63C13.32 41.03 12.29 41.19 11.44 41.19" fill="#959799"/>
<path d="M17.77 35.71V39.54C17.77 40.35 17.31 41.2 15.94 41.2C14.7 41.2 14.1 40.56 14.1 39.54V35.71H15.23V39.46C15.23 40.13 15.51 40.39 15.93 40.39C16.42 40.39 16.65 40.06 16.65 39.46V35.71H17.77Z" fill="#959799"/>
<path d="M19.79 38.04H20.29C20.74 38.04 20.87 37.59 20.87 37.25C20.87 36.74 20.65 36.54 20.29 36.54H19.79V38.04ZM19.79 41.11H18.66V35.72H20.75C21.52 35.72 22.01 36.21 22.01 37.13C22.01 37.82 21.74 38.33 21.01 38.45C21.26 38.49 21.99 38.55 21.99 39.52C21.99 39.86 22.01 40.88 22.12 41.1H21.01C20.86 40.77 20.89 40.4 20.89 40.05C20.89 39.41 20.95 38.86 20.08 38.86H19.79V41.11Z" fill="#959799"/>
<path d="M22.84 41.11V35.72H25.79V36.55H23.97V37.88H25.64V38.71H23.97V40.29H25.85V41.12L22.84 41.11Z" fill="#959799"/>
<path d="M27.39 40.12H26.49V41.11H27.39V40.12Z" fill="#959799"/>
<path d="M31.04 40.28H31.67C31.91 40.28 32.45 40.28 32.45 39.52C32.45 39.04 32.27 38.75 31.7 38.75H31.04V40.28ZM31.04 37.92H31.79C32.04 37.92 32.38 37.75 32.38 37.23C32.38 36.83 32.11 36.54 31.73 36.54H31.04V37.92ZM29.91 41.11V35.72H31.91C32.77 35.72 33.48 35.97 33.48 37.12C33.48 37.74 33.17 38.19 32.56 38.31V38.33C33.36 38.44 33.57 38.96 33.57 39.7C33.57 41.07 32.38 41.13 31.9 41.13L29.91 41.11Z" fill="#959799"/>
<path d="M38.13 35.71V39.54C38.13 40.35 37.67 41.2 36.3 41.2C35.06 41.2 34.46 40.56 34.46 39.54V35.71H35.59V39.46C35.59 40.13 35.87 40.39 36.29 40.39C36.78 40.39 37.01 40.06 37.01 39.46V35.71H38.13Z" fill="#959799"/>
<path d="M40.18 35.72H39.05V41.12H40.18V35.72Z" fill="#959799"/>
<path d="M41.13 41.11V35.72H42.26V40.22H43.95V41.12L41.13 41.11Z" fill="#959799"/>
<path d="M45.59 40.28H46.13C46.82 40.28 46.95 39.76 46.95 38.41C46.95 37.42 46.95 36.54 46.16 36.54H45.58V40.28H45.59ZM44.46 35.71H46.34C47.82 35.71 48.1 36.7 48.1 38.38C48.1 39.21 48.23 41.11 46.3 41.11H44.46V35.71Z" fill="#959799"/>
<path d="M52.13 41.2C50.73 41.2 50.47 40.38 50.53 39.44H51.66C51.66 39.96 51.68 40.39 52.3 40.39C52.68 40.39 52.87 40.14 52.87 39.78C52.87 38.81 50.6 38.75 50.6 37.14C50.6 36.29 51 35.62 52.38 35.62C53.48 35.62 54.03 36.11 53.95 37.24H52.85C52.85 36.84 52.78 36.42 52.32 36.42C51.95 36.42 51.74 36.62 51.74 37C51.74 38.02 54.01 37.93 54.01 39.63C54.01 41.03 52.98 41.19 52.12 41.19" fill="#959799"/>
<path d="M58.47 35.71V39.54C58.47 40.35 58.01 41.2 56.64 41.2C55.4 41.2 54.8 40.56 54.8 39.54V35.71H55.93V39.46C55.93 40.13 56.21 40.39 56.63 40.39C57.12 40.39 57.35 40.06 57.35 39.46V35.71H58.47Z" fill="#959799"/>
<path d="M60.5 38.04H61C61.45 38.04 61.58 37.59 61.58 37.25C61.58 36.74 61.36 36.54 61 36.54H60.5V38.04ZM60.5 41.11H59.37V35.72H61.46C62.23 35.72 62.72 36.21 62.72 37.13C62.72 37.82 62.45 38.33 61.72 38.45C61.97 38.49 62.7 38.55 62.7 39.52C62.7 39.86 62.72 40.88 62.83 41.1H61.72C61.57 40.77 61.6 40.4 61.6 40.05C61.6 39.41 61.66 38.86 60.79 38.86H60.5V41.11Z" fill="#959799"/>
<path d="M63.55 41.11V35.72H66.51V36.55H64.68V37.88H66.36V38.71H64.68V40.29H66.57V41.12L63.55 41.11Z" fill="#959799"/>
<path d="M68.1 40.12H67.2V41.11H68.1V40.12Z" fill="#959799"/>
</g>
<defs>
<clipPath id="clip0_1897_13345">
<rect width="68.2" height="41.2" fill="white"/>
</clipPath>
</defs>
</svg>
