<svg width="142" height="42" viewBox="0 0 142 42" fill="none" xmlns="http://www.w3.org/2000/svg">
<g clip-path="url(#clip0_410_1478)">
<path d="M24.109 0H7.30987C3.27877 0 0 3.22441 0 7.18867V23.7093C0 27.6735 3.27877 30.8979 7.30987 30.8979H15.7083V25.0745H7.30987C6.55754 25.0745 5.92162 24.4491 5.92162 23.7093V7.18867C5.92162 6.44882 6.55754 5.82344 7.30987 5.82344H24.109C24.8613 5.82344 25.4972 6.44882 25.4972 7.18867V15.45H31.4188V7.18867C31.4188 3.22441 28.1401 0 24.109 0Z" fill="#00D5BE"/>
<path d="M26.782 30.8958C28.9678 30.8958 31.0459 30.8958 33.2404 30.8958C29.2007 25.0406 25.2299 18.5112 21.257 12.7513L21.1169 12.798C22.1473 16.8598 23.1756 20.9215 24.2254 25.066C22.0762 25.066 19.983 25.066 17.7498 25.066C21.8412 30.7877 25.8508 36.3928 29.8581 41.9979C29.8862 41.9851 29.9142 41.9724 29.9422 41.9597C28.8989 38.0569 27.8577 34.9215 26.782 30.8937V30.8958Z" fill="#777777"/>
<path d="M42.9603 28.566H43.7364V34.205H46.8319V34.8834H42.9603V28.566Z" fill="#777777"/>
<path d="M47.4484 29.0409C47.4484 28.7695 47.6726 28.5491 47.9485 28.5491C48.2245 28.5491 48.4508 28.7695 48.4508 29.0409C48.4508 29.3122 48.2245 29.5327 47.9485 29.5327C47.6726 29.5327 47.4484 29.3122 47.4484 29.0409ZM47.5821 30.4061H48.315V34.8834H47.5821V30.4061Z" fill="#777777"/>
<path d="M51.3868 31.0251H50.462V34.8834H49.7291V31.0251H48.9186V30.4061H49.7291V29.609C49.7291 28.9688 50.1904 28.566 50.9277 28.566H51.3847V29.185H50.9945C50.6065 29.185 50.4599 29.3334 50.4599 29.7193V30.4061H51.3847V31.0251H51.3868Z" fill="#777777"/>
<path d="M51.777 32.6532C51.777 31.2922 52.6306 30.3044 53.8378 30.3044C55.1054 30.3044 55.9073 31.2626 55.9073 32.6532V32.8525H52.5013C52.5358 33.7302 53.0273 34.3322 53.8896 34.3322C54.5363 34.3322 54.9588 34.01 55.0967 33.5436H55.8297C55.6572 34.4001 54.8812 34.9852 53.8896 34.9852C52.553 34.9852 51.777 34.0015 51.777 32.6532ZM55.1765 32.2335C55.0989 31.4449 54.5901 30.9488 53.84 30.9488C53.0898 30.9488 52.5897 31.4449 52.5121 32.2335H55.1765Z" fill="#777777"/>
<path d="M56.6229 34.4255C56.6229 34.1287 56.8601 33.8955 57.1619 33.8955C57.4637 33.8955 57.7008 34.1287 57.7008 34.4255C57.7008 34.7223 57.4637 34.9555 57.1619 34.9555C56.8601 34.9555 56.6229 34.7223 56.6229 34.4255Z" fill="#777777"/>
<path d="M60.6691 32.8483H61.4624C61.4624 33.7514 62.0617 34.2898 63.0921 34.2898C64.0277 34.2898 64.6442 33.8574 64.6442 33.179C64.6442 32.6532 64.2993 32.348 63.3723 32.1233L62.6523 31.9494C61.3417 31.6314 60.7985 31.1311 60.7985 30.2704C60.7985 29.1808 61.6737 28.4643 63.0145 28.4643C64.3553 28.4643 65.2047 29.219 65.2391 30.4316H64.4717C64.4243 29.6429 63.8595 29.1638 62.9886 29.1638C62.1177 29.1638 61.5659 29.6048 61.5659 30.2323C61.5659 30.7241 61.9237 31.0082 62.855 31.2371L63.5836 31.4152C64.8339 31.7205 65.4202 32.2632 65.4202 33.1451C65.4202 34.2432 64.489 34.9852 63.0921 34.9852C61.609 34.9852 60.6691 34.1626 60.6691 32.8483Z" fill="#777777"/>
<path d="M66.1575 29.0409C66.1575 28.7695 66.3816 28.5491 66.6576 28.5491C66.9335 28.5491 67.1598 28.7695 67.1598 29.0409C67.1598 29.3122 66.9335 29.5327 66.6576 29.5327C66.3816 29.5327 66.1575 29.3122 66.1575 29.0409ZM66.2911 30.4061H67.024V34.8834H66.2911V30.4061Z" fill="#777777"/>
<path d="M68.8219 30.4061V31.1311C69.1107 30.6054 69.6173 30.3213 70.1713 30.3213C70.7964 30.3213 71.2879 30.6775 71.4776 31.1269C71.7277 30.669 72.2364 30.3213 72.9133 30.3213C73.7454 30.3213 74.4266 30.8471 74.4266 31.9494V34.8834H73.6937V31.9494C73.6937 31.2541 73.228 30.9827 72.7064 30.9827C72.0381 30.9827 71.6328 31.4279 71.6328 32.0342V34.8834H70.8999V31.8731C70.8999 31.3389 70.4903 30.9827 69.9385 30.9827C69.3866 30.9827 68.8391 31.3813 68.8391 32.1529V34.8834H68.1062V30.4061H68.8219Z" fill="#777777"/>
<path d="M76.2158 30.4061V31.0675H76.2244C76.5176 30.5672 77.0738 30.3213 77.6644 30.3213C78.85 30.3213 79.6412 31.2626 79.6412 32.6448C79.6412 34.027 78.8522 34.9682 77.6644 34.9682C77.0738 34.9682 76.5693 34.7223 76.2417 34.205H76.233V36.6557H75.5001V30.4061H76.2158ZM78.8996 32.6448C78.8996 31.5466 78.3434 30.9658 77.5545 30.9658C76.7094 30.9658 76.1748 31.6314 76.1748 32.6448C76.1748 33.6581 76.7094 34.3195 77.5545 34.3195C78.3434 34.3195 78.8996 33.7429 78.8996 32.6448Z" fill="#777777"/>
<path d="M81.2191 34.8834H80.4862V28.566H81.2191V34.8834Z" fill="#777777"/>
<path d="M82.1697 29.0409C82.1697 28.7695 82.3939 28.5491 82.6699 28.5491C82.9458 28.5491 83.1721 28.7695 83.1721 29.0409C83.1721 29.3122 82.9458 29.5327 82.6699 29.5327C82.3939 29.5327 82.1697 29.3122 82.1697 29.0409ZM82.3034 30.4061H83.0363V34.8834H82.3034V30.4061Z" fill="#777777"/>
<path d="M86.106 31.0251H85.1812V34.8834H84.4483V31.0251H83.6378V30.4061H84.4483V29.609C84.4483 28.9688 84.9096 28.566 85.6468 28.566H86.1038V29.185H85.7137C85.3256 29.185 85.1791 29.3334 85.1791 29.7193V30.4061H86.1038V31.0251H86.106Z" fill="#777777"/>
<path d="M86.6837 29.0409C86.6837 28.7695 86.9079 28.5491 87.1838 28.5491C87.4598 28.5491 87.6861 28.7695 87.6861 29.0409C87.6861 29.3122 87.4598 29.5327 87.1838 29.5327C86.9079 29.5327 86.6837 29.3122 86.6837 29.0409ZM86.8195 30.4061H87.5524V34.8834H86.8195V30.4061Z" fill="#777777"/>
<path d="M88.4018 32.6532C88.4018 31.2922 89.2554 30.3044 90.4626 30.3044C91.7301 30.3044 92.532 31.2626 92.532 32.6532V32.8525H89.1261C89.1606 33.7302 89.6521 34.3322 90.5143 34.3322C91.161 34.3322 91.5835 34.01 91.7215 33.5436H92.4544C92.282 34.4001 91.5059 34.9852 90.5143 34.9852C89.1778 34.9852 88.4018 34.0015 88.4018 32.6532ZM91.7991 32.2335C91.7215 31.4449 91.2128 30.9488 90.4626 30.9488C89.7124 30.9488 89.2123 31.4449 89.1347 32.2335H91.7991Z" fill="#777777"/>
<path d="M93.127 32.6448C93.127 31.2626 93.916 30.3213 95.1016 30.3213C95.6922 30.3213 96.2312 30.5672 96.5265 31.0675H96.5351V28.566H97.268V34.8834H96.5524V34.205H96.5437C96.2161 34.7223 95.6922 34.9682 95.1016 34.9682C93.916 34.9682 93.127 34.0227 93.127 32.6448ZM96.5933 32.6448C96.5933 31.6314 96.0587 30.9658 95.2137 30.9658C94.4247 30.9658 93.8686 31.5466 93.8686 32.6448C93.8686 33.7429 94.4247 34.3195 95.2137 34.3195C96.0587 34.3195 96.5933 33.6581 96.5933 32.6448Z" fill="#777777"/>
<path d="M62.5855 12.9379C62.5855 9.95307 61.5292 7.43036 59.4167 5.37403C57.3041 3.31558 54.7497 2.28741 51.7555 2.28741C48.7612 2.28741 46.2111 3.3177 44.1093 5.37403C42.0075 7.43248 40.9556 9.95307 40.9556 12.9379C40.9556 15.9228 42.0075 18.4434 44.1093 20.5018C46.2111 22.5603 48.7612 23.5884 51.7555 23.5884C53.0575 23.5884 54.2927 23.3764 55.461 22.9525L52.1737 19.6263C52.0378 19.6348 51.902 19.6369 51.7662 19.6369C49.8585 19.6369 48.2611 19.003 46.9677 17.7353C45.6765 16.4676 45.0298 14.8671 45.0298 12.9379C45.0298 11.0088 45.6743 9.37857 46.9656 8.10873C48.2547 6.84102 49.852 6.20716 51.7555 6.20716C53.6589 6.20716 55.2563 6.84102 56.5453 8.10873C57.8344 9.37857 58.479 10.9855 58.479 12.9379C58.479 14.4388 58.0565 15.7744 57.2114 16.9425L53.5705 13.2008L50.6539 15.7468L59.255 24.5827L62.1716 22.0367L60.0332 19.8383C61.7362 17.888 62.5898 15.5878 62.5898 12.9379H62.5855Z" fill="#00D5BE"/>
<path d="M83.1463 5.37403C81.0445 3.31558 78.4857 2.28741 75.4699 2.28741C72.4542 2.28741 69.8997 3.3177 67.8087 5.37403C65.7156 7.43248 64.6701 9.95307 64.6701 12.9379C64.6701 15.9228 65.7156 18.4434 67.8087 20.5018C69.9019 22.5603 72.4542 23.5884 75.4699 23.5884C78.4857 23.5884 81.0423 22.5603 83.1463 20.5018C85.248 18.4434 86.3 15.9228 86.3 12.9379C86.3 9.95307 85.248 7.43036 83.1463 5.37403ZM80.2598 17.7502C78.9707 19.0073 77.3734 19.6369 75.4699 19.6369C73.5665 19.6369 71.9691 19.0073 70.6801 17.7502C69.391 16.4909 68.7464 14.8861 68.7464 12.9379C68.7464 10.9897 69.391 9.37857 70.6801 8.10874C71.9691 6.84102 73.5665 6.20716 75.4699 6.20716C77.3734 6.20716 78.9707 6.84102 80.2598 8.10874C81.5489 9.37857 82.1956 10.9855 82.1956 12.9379C82.1956 14.8904 81.5511 16.493 80.2598 17.7502Z" fill="#00D5BE"/>
<path d="M100.435 15.4543C101.644 14.9073 102.616 14.0933 103.349 13.01C104.082 11.9267 104.451 10.7523 104.451 9.48457C104.451 7.61267 103.776 6.01213 102.427 4.68717C101.077 3.3601 99.441 2.69656 97.5181 2.69656H89.1865V23.1793H93.293V16.0691H96.4015L100.611 23.1793H105.044L100.433 15.4543H100.435ZM99.5099 11.6342C98.9538 12.2299 98.2898 12.5267 97.5159 12.5267H93.2908V6.47003H97.5159C98.2898 6.47003 98.9538 6.76258 99.5099 7.34768C100.066 7.93278 100.344 8.64508 100.344 9.48245C100.344 10.3198 100.066 11.0385 99.5099 11.6321V11.6342Z" fill="#00D5BE"/>
<path d="M122.882 5.65174C120.967 3.68021 118.583 2.69656 115.727 2.69656H107.456V23.1793H115.727C118.583 23.1793 120.97 22.1957 122.882 20.2241C124.796 18.2526 125.753 15.8253 125.753 12.9379C125.753 10.0506 124.796 7.62327 122.882 5.65174ZM120.131 17.5466C118.999 18.7275 117.531 19.3168 115.727 19.3168H111.562V6.55695H115.727C117.531 6.55695 119.001 7.14841 120.131 8.32709C121.263 9.50789 121.828 11.0448 121.828 12.9358C121.828 14.8268 121.263 16.3637 120.131 17.5445V17.5466Z" fill="#00D5BE"/>
<path d="M132.164 19.3168L140.836 5.86585V2.69656H127.182V6.55907H135.632L126.962 19.9528V23.1793H141V19.3168H132.164Z" fill="#00D5BE"/>
</g>
<defs>
<clipPath id="clip0_410_1478">
<rect width="141" height="42" fill="white"/>
</clipPath>
</defs>
</svg>
