<svg width="136" height="42" viewBox="0 0 136 42" fill="none" xmlns="http://www.w3.org/2000/svg">
<g clip-path="url(#clip0_1897_13134)">
<path d="M40.7519 8.87148C49.1584 8.00639 53.3623 14.6661 53.3623 14.6661C51.0694 10.0422 46.349 6.87024 40.9125 6.87024C33.2337 6.87024 26.9871 13.2142 26.9871 21C26.9871 28.7858 33.2337 35.1298 40.9125 35.1298C43.8686 35.1326 46.7462 34.1816 49.115 32.4192V28.8363C48.0727 29.97 46.8056 30.8757 45.3939 31.4962C43.9823 32.1166 42.4568 32.4383 40.914 32.4408C34.7021 32.4408 29.6461 27.3108 29.6461 21.0043C29.6461 14.6978 34.5733 9.50876 40.7519 8.87148Z" fill="url(#paint0_linear_1897_13134)"/>
<path d="M40.8358 36.6567C42.7284 36.6597 44.6106 36.3773 46.4184 35.819C43.7988 37.3537 40.8189 38.1713 37.7803 38.189C34.7418 38.2068 31.7524 37.424 29.115 35.92C26.4775 34.416 24.2856 32.2442 22.7612 29.6244C21.2367 27.0046 20.4338 24.0299 20.4338 21.0015C20.4338 17.973 21.2367 14.9982 22.7612 12.3785C24.2856 9.75868 26.4775 7.58686 29.115 6.08287C31.7524 4.57889 34.7418 3.79615 37.7803 3.81389C40.8189 3.83164 43.7988 4.64925 46.4184 6.18394C44.6108 5.62444 42.7286 5.34151 40.8358 5.34481C31.3126 5.34481 23.5918 12.3549 23.5918 21.0015C23.5918 29.648 31.3126 36.6567 40.8358 36.6567Z" fill="url(#paint1_linear_1897_13134)"/>
<path d="M25.8312 42C14.8295 40.2208 6.47949 31.4964 6.47949 21C6.47949 10.5036 14.8295 1.7792 25.8312 0C16.5076 3.26571 9.89936 11.4365 9.89936 21C9.89936 30.5635 16.5076 38.7343 25.8312 42Z" fill="url(#paint2_linear_1897_13134)"/>
<path d="M17.6693 41.3296C7.6267 39.5994 0 31.159 0 21C0 10.841 7.6267 2.40062 17.6693 0.670441C9.15581 3.84243 3.12186 11.7436 3.12186 21C3.12186 30.2564 9.15581 38.1576 17.6693 41.3296Z" fill="url(#paint3_linear_1897_13134)"/>
<path d="M37.3697 39.7436C38.8362 39.7425 40.299 39.5976 41.7371 39.311C39.1353 40.4883 36.3109 41.0969 33.4536 41.096C22.3738 41.096 13.3583 32.0803 13.3583 20.9957C13.3583 9.911 22.3723 0.901123 33.4522 0.901123C36.31 0.902491 39.1346 1.51203 41.7371 2.68897C40.297 2.40264 38.8323 2.25776 37.3639 2.25643C26.0352 2.25643 16.8215 10.6622 16.8215 21C16.8215 31.3378 26.041 39.7436 37.3697 39.7436Z" fill="url(#paint4_linear_1897_13134)"/>
<path d="M124.032 16.4857V29.8686H121.977V16.4857H124.032Z" fill="#111111"/>
<path d="M126.555 18.2461V16.4857H137V18.2461H132.805V29.8686H130.764V18.2461H126.555Z" fill="#111111"/>
<path d="M41.63 30.1353C40.1535 30.1353 38.8761 29.909 37.7979 29.4562C36.7792 29.0516 35.9048 28.3533 35.2865 27.4507C34.6905 26.5654 34.3804 25.4807 34.3563 24.1965H37.9729C37.9864 24.7562 38.1689 25.2989 38.4966 25.7536C38.8229 26.1863 39.2652 26.5181 39.7726 26.711C40.3586 26.9348 40.9823 27.044 41.6098 27.0325C42.2043 27.0456 42.796 26.9478 43.3544 26.7442C43.8063 26.582 44.2061 26.3016 44.5118 25.9324C44.7847 25.5923 44.9309 25.1684 44.9255 24.7329C44.9367 24.3535 44.8092 23.983 44.5667 23.6904C44.274 23.3723 43.9116 23.1256 43.5078 22.9695C42.947 22.7383 42.3658 22.5597 41.7718 22.436L39.8029 21.9516C38.2136 21.5796 36.9829 20.9918 36.1111 20.1883C35.2393 19.3847 34.8053 18.3274 34.8091 17.0163C34.7881 15.9931 35.0975 14.9904 35.6916 14.1557C36.3114 13.3141 37.1475 12.6546 38.1118 12.2468C39.2277 11.7727 40.4317 11.5393 41.6445 11.5619C42.9899 11.5619 44.1636 11.7921 45.1656 12.2525C46.1097 12.6671 46.9199 13.3344 47.5063 14.1802C48.0742 15.0319 48.3785 16.0311 48.3815 17.0538H44.804C44.7867 16.7096 44.6931 16.3735 44.5301 16.0696C44.367 15.7657 44.1384 15.5016 43.8608 15.2962C43.2985 14.8694 42.5506 14.656 41.617 14.656C41.0658 14.6433 40.5172 14.7363 40.0011 14.93C39.5912 15.0793 39.231 15.3394 38.961 15.6811C38.7229 15.9973 38.5967 16.3831 38.6022 16.7784C38.5892 17.1714 38.7262 17.5547 38.9856 17.8511C39.2799 18.1668 39.6411 18.4131 40.0431 18.572C40.5335 18.774 41.0402 18.9341 41.5577 19.0507L43.2112 19.45C43.9687 19.6134 44.7082 19.851 45.4188 20.1594C46.0478 20.4289 46.6329 20.7904 47.1548 21.2321C47.6334 21.641 48.0157 22.1501 48.2745 22.723C48.5429 23.3425 48.6756 24.012 48.6636 24.6867C48.6868 25.7131 48.394 26.722 47.8246 27.5775C47.2244 28.4305 46.3872 29.09 45.4159 29.475C44.3676 29.9152 43.1056 30.1353 41.63 30.1353Z" fill="#111111"/>
<path d="M50.6542 34.9351V16.4871H54.2173V18.6499H54.3749C54.5783 18.247 54.8363 17.8739 55.1417 17.5411C55.4923 17.1627 55.9166 16.8596 56.3887 16.6501C56.9688 16.3993 57.5967 16.2773 58.2288 16.2925C59.2172 16.2809 60.1875 16.557 61.0208 17.0869C61.8512 17.6156 62.5138 18.3913 63.0085 19.414C63.5033 20.4367 63.7506 21.6954 63.7506 23.1901C63.7506 24.6608 63.5095 25.9103 63.0273 26.9388C62.6047 27.893 61.9196 28.7084 61.0512 29.2904C60.2033 29.835 59.2128 30.1174 58.2042 30.1022C57.5863 30.1178 56.9723 29.9998 56.4046 29.7561C55.9347 29.5494 55.5111 29.2508 55.159 28.8781C54.8459 28.5447 54.5814 28.169 54.3735 27.7621H54.2766V34.938L50.6542 34.9351ZM57.1236 27.1897C57.6961 27.2081 58.2577 27.0305 58.7149 26.6865C59.167 26.3189 59.5059 25.8317 59.6928 25.2808C59.9278 24.6047 60.0409 23.8925 60.027 23.1771C60.0405 22.4679 59.9274 21.762 59.6928 21.0923C59.5051 20.5454 59.1661 20.0626 58.7149 19.6995C58.2561 19.3592 57.6952 19.1839 57.1236 19.2021C56.5535 19.1866 55.9941 19.3589 55.5323 19.6923C55.0694 20.0476 54.7181 20.5273 54.5196 21.075C54.2773 21.7489 54.1615 22.4615 54.1782 23.1771C54.1624 23.8961 54.2821 24.6116 54.5312 25.2865C54.7308 25.8384 55.0816 26.3234 55.5438 26.6865C55.9983 27.0272 56.5551 27.2045 57.1236 27.1897Z" fill="#111111"/>
<path d="M69.5474 22.1837V29.8686H65.9308V11.8084H69.4982V19.8566H69.1221C69.4866 18.7253 70.0359 17.8487 70.7698 17.2268C71.5037 16.6049 72.4465 16.2934 73.598 16.2925C74.4523 16.2732 75.2961 16.4828 76.0414 16.8995C76.7434 17.3089 77.3085 17.9158 77.666 18.6441C78.0517 19.4034 78.2446 20.3166 78.2446 21.3835V29.8686H74.6063V22.0266C74.6063 21.1778 74.3917 20.517 73.9626 20.0441C73.5334 19.5712 72.933 19.3347 72.1615 19.3347C71.688 19.3259 71.2206 19.4413 70.806 19.6692C70.4103 19.8937 70.089 20.2284 69.8816 20.6323C69.6449 21.1146 69.5302 21.6472 69.5474 22.1837Z" fill="#111111"/>
<path d="M86.8058 30.1353C85.4363 30.1353 84.2544 29.8527 83.2601 29.2875C82.2748 28.7286 81.4756 27.8939 80.9614 26.8869C80.4213 25.8526 80.1517 24.6367 80.1527 23.2391C80.1527 21.8569 80.4203 20.6467 80.9556 19.6086C81.4633 18.5994 82.2478 17.7545 83.2181 17.172C84.1903 16.5866 85.3293 16.2934 86.6351 16.2925C87.4898 16.2832 88.339 16.4298 89.1407 16.725C89.8998 17.0109 90.5899 17.453 91.166 18.0226C91.7668 18.6273 92.2274 19.3556 92.5157 20.1565C92.8516 21.1038 93.0142 22.1034 92.996 23.1079V24.1172H81.6008V21.8319H91.2326L89.5414 22.4259C89.5564 21.8082 89.4446 21.194 89.213 20.6208C89.017 20.1391 88.6803 19.7273 88.2467 19.4385C87.7745 19.1471 87.2263 19.0016 86.6713 19.0204C86.1107 19.0037 85.5575 19.151 85.08 19.4443C84.6406 19.7284 84.2921 20.1323 84.076 20.6078C83.8374 21.1414 83.7194 21.7207 83.7303 22.3048V23.9052C83.7118 24.5652 83.8465 25.2204 84.1237 25.82C84.3594 26.3208 84.7437 26.7376 85.2246 27.0138C85.7285 27.2913 86.2968 27.4316 86.8724 27.4204C87.2713 27.4256 87.6682 27.3621 88.0456 27.2329C88.382 27.1175 88.6894 26.9311 88.9469 26.6865C89.1991 26.44 89.392 26.1398 89.511 25.8084L92.808 26.2813C92.605 27.0421 92.2141 27.74 91.6709 28.3114C91.0966 28.905 90.3961 29.3627 89.621 29.6509C88.7209 29.9852 87.7663 30.1495 86.8058 30.1353Z" fill="#111111"/>
<path d="M94.8694 29.8686V16.4871H98.3833V18.8027H98.5048C98.7498 17.9866 99.1553 17.3705 99.7214 16.9543C100.31 16.5306 101.021 16.3112 101.747 16.33C101.941 16.33 102.143 16.3372 102.354 16.353C102.538 16.3658 102.721 16.3904 102.901 16.4266V19.6259C102.676 19.5655 102.446 19.5269 102.214 19.5106C101.91 19.4837 101.617 19.4698 101.333 19.4688C100.829 19.4628 100.331 19.5838 99.8863 19.8206C99.4603 20.0482 99.1088 20.393 98.8737 20.814C98.6216 21.2788 98.4959 21.8012 98.5091 22.3293V29.8686H94.8694Z" fill="#111111"/>
<path d="M110.412 30.1353C109.042 30.1353 107.86 29.8527 106.866 29.2875C105.881 28.7286 105.082 27.8939 104.568 26.8869C104.03 25.8526 103.76 24.6367 103.759 23.2391C103.759 21.8569 104.027 20.6467 104.562 19.6086C105.07 18.5994 105.854 17.7545 106.824 17.172C107.797 16.5866 108.936 16.2934 110.241 16.2925C111.096 16.2832 111.945 16.4298 112.747 16.725C113.506 17.0109 114.196 17.453 114.772 18.0226C115.373 18.6273 115.834 19.3556 116.122 20.1565C116.458 21.1038 116.621 22.1034 116.602 23.1079V24.1172H105.207V21.8319H114.839L113.148 22.4259C113.163 21.8082 113.051 21.194 112.819 20.6208C112.623 20.1391 112.287 19.7273 111.853 19.4385C111.381 19.1471 110.833 19.0016 110.278 19.0204C109.717 19.0037 109.164 19.151 108.686 19.4443C108.247 19.7284 107.898 20.1323 107.682 20.6078C107.444 21.1414 107.326 21.7207 107.337 22.3048V23.9052C107.317 24.5648 107.45 25.22 107.726 25.82C107.961 26.3208 108.346 26.7376 108.827 27.0138C109.334 27.2932 109.906 27.4335 110.486 27.4204C110.885 27.4255 111.283 27.3621 111.661 27.2329C111.997 27.1177 112.304 26.9313 112.56 26.6865C112.813 26.4401 113.006 26.1399 113.126 25.8084L116.422 26.2813C116.219 27.0421 115.828 27.74 115.284 28.3114C114.708 28.9059 114.005 29.3636 113.227 29.6509C112.327 29.9852 111.373 30.1495 110.412 30.1353Z" fill="#111111"/>
</g>
<defs>
<linearGradient id="paint0_linear_1897_13134" x1="47.5497" y1="21" x2="0.296557" y2="21" gradientUnits="userSpaceOnUse">
<stop stop-color="#4C0082"/>
<stop offset="1" stop-color="#EB2128"/>
</linearGradient>
<linearGradient id="paint1_linear_1897_13134" x1="47.5497" y1="21" x2="0.296548" y2="21" gradientUnits="userSpaceOnUse">
<stop stop-color="#4C0082"/>
<stop offset="1" stop-color="#EB2128"/>
</linearGradient>
<linearGradient id="paint2_linear_1897_13134" x1="47.5497" y1="21" x2="0.29654" y2="21" gradientUnits="userSpaceOnUse">
<stop stop-color="#4C0082"/>
<stop offset="1" stop-color="#EB2128"/>
</linearGradient>
<linearGradient id="paint3_linear_1897_13134" x1="47.5497" y1="21" x2="0.296561" y2="21" gradientUnits="userSpaceOnUse">
<stop stop-color="#4C0082"/>
<stop offset="1" stop-color="#EB2128"/>
</linearGradient>
<linearGradient id="paint4_linear_1897_13134" x1="47.5497" y1="21" x2="0.296535" y2="21" gradientUnits="userSpaceOnUse">
<stop stop-color="#4C0082"/>
<stop offset="1" stop-color="#EB2128"/>
</linearGradient>
<clipPath id="clip0_1897_13134">
<rect width="136" height="42" fill="white"/>
</clipPath>
</defs>
</svg>
