<svg id="Layer_1" data-name="Layer 1" xmlns="http://www.w3.org/2000/svg" xmlns:xlink="http://www.w3.org/1999/xlink" viewBox="240 490 605 110"><defs><style>.cls-1{fill:url(#linear-gradient);}.cls-2{fill:url(#linear-gradient-2);}.cls-3{fill:url(#linear-gradient-3);}.cls-4{fill:url(#linear-gradient-4);}.cls-5{fill:url(#linear-gradient-5);}.cls-6{fill:#070808;}.cls-7{fill:url(#linear-gradient-6);}.cls-8{fill:#fff;}</style><linearGradient id="linear-gradient" x1="276.59" y1="510.77" x2="278.77" y2="574.99" gradientUnits="userSpaceOnUse"><stop offset="0" stop-color="#e5c27a"/><stop offset="0.51" stop-color="#c9a86a"/><stop offset="1" stop-color="#a67c2e"/></linearGradient><linearGradient id="linear-gradient-2" x1="328.62" y1="509.19" x2="330.79" y2="573.21" xlink:href="#linear-gradient"/><linearGradient id="linear-gradient-3" x1="384.39" y1="507.28" x2="386.57" y2="571.57" xlink:href="#linear-gradient"/><linearGradient id="linear-gradient-4" x1="466.17" y1="504.92" x2="468.34" y2="569.03" xlink:href="#linear-gradient"/><linearGradient id="linear-gradient-5" x1="550.62" y1="502.11" x2="552.79" y2="566.31" xlink:href="#linear-gradient"/><linearGradient id="linear-gradient-6" x1="717.75" y1="500.23" x2="718" y2="587.2" xlink:href="#linear-gradient"/></defs><path class="cls-1" d="M267.42,558.2h43.9v12.08h-66V558.2L284.45,523l3.24-2.5H245.76V508.37h64.06v12.08l-39.16,35.24Z"/><path class="cls-2" d="M321.67,570.28V508.37h15.94v61.91Z"/><path class="cls-3" d="M401.29,570.28l-16.74-20H369.72v20H352V508.37h34c21.17,0,33,8,33,21.11v.09c0,9.49-6.1,16-17.47,19L421,570.28Zm-31.57-50v18.61H386c9.45,0,15.31-2.6,15.31-9.31v-.09c0-6.53-5.86-9.21-15.31-9.21Z"/><path class="cls-4" d="M467.39,507.29c24.13,0,38.87,13.25,38.87,32v.08c0,18.81-14.74,32.06-38.87,32.06h-.11c-24.12,0-38.86-13.25-38.86-32.06v-.08c0-18.72,14.74-32,38.86-32Zm0,51.75c14.08,0,22.71-8.15,22.71-19.7v-.08c0-11.46-8.63-19.61-22.71-19.61h-.11c-14.08,0-22.7,8.15-22.7,19.61v.08c0,11.55,8.62,19.7,22.7,19.7Z"/><path class="cls-5" d="M570.32,508.37h16.49v61.91h-15L533.44,531v39.28H517V508.37h15l38.37,39.36Z"/><path class="cls-6" d="M824.64,579.47H611.08A10.08,10.08,0,0,1,601,569.4V510.6a10.08,10.08,0,0,1,10.06-10.07H824.64A10.08,10.08,0,0,1,834.7,510.6v58.8A10.08,10.08,0,0,1,824.64,579.47Z"/><path class="cls-7" d="M824.64,579.47H611.08A10.08,10.08,0,0,1,601,569.4V510.6a10.08,10.08,0,0,1,10.06-10.07H824.64A10.08,10.08,0,0,1,834.7,510.6v58.8A10.08,10.08,0,0,1,824.64,579.47Zm-213.56-76A7.14,7.14,0,0,0,604,510.6v58.8a7.14,7.14,0,0,0,7.13,7.14H824.64a7.14,7.14,0,0,0,7.13-7.14V510.6a7.14,7.14,0,0,0-7.13-7.14Z"/><path class="cls-8" d="M650.2,512.77c18.56,0,28.37,6.94,28.37,19.81v.07c0,12.87-9.81,19.73-28.37,19.73H638.12v14.35H623.59v-54ZM664,532.58c0-6.16-4.71-9-13.84-9H638.12v17.85H650.2c9.13,0,13.84-2.57,13.84-8.81Z"/><path class="cls-8" d="M727.66,566.73l-14-17.47H701.25v17.47H686.44v-54h28.42c17.71,0,27.62,6.94,27.62,18.4v.08c0,8.27-5.11,14-14.62,16.53l16.32,19Zm-26.41-43.59v16.22h13.61c7.9,0,12.8-2.26,12.8-8.11v-.08c0-5.69-4.9-8-12.8-8Z"/><path class="cls-8" d="M782.91,510.7c21,0,33.78,11.93,33.78,28.77v.08c0,16.93-12.81,28.86-33.78,28.86h-.09c-21,0-33.79-11.93-33.79-28.86v-.08c0-16.84,12.82-28.77,33.79-28.77Zm0,46.58c12.24,0,19.74-7.33,19.74-17.73v-.08c0-10.31-7.5-17.65-19.74-17.65h-.09c-12.24,0-19.74,7.34-19.74,17.65v.08c0,10.4,7.5,17.73,19.74,17.73Z"/></svg>